<svg width="16" height="16" viewBox="0 0 16 16" fill="none" xmlns="http://www.w3.org/2000/svg">
<path d="M5 11C5 11.2652 4.89464 11.5196 4.70711 11.7071C4.51957 11.8946 4.26522 12 4 12C3.73478 12 3.48043 11.8946 3.29289 11.7071C3.10536 11.5196 3 11.2652 3 11C3 10.7348 3.10536 10.4804 3.29289 10.2929C3.48043 10.1054 3.73478 10 4 10C4.26522 10 4.51957 10.1054 4.70711 10.2929C4.89464 10.4804 5 10.7348 5 11ZM13 11C13 11.2652 12.8946 11.5196 12.7071 11.7071C12.5196 11.8946 12.2652 12 12 12C11.7348 12 11.4804 11.8946 11.2929 11.7071C11.1054 11.5196 11 11.2652 11 11C11 10.7348 11.1054 10.4804 11.2929 10.2929C11.4804 10.1054 11.7348 10 12 10C12.2652 10 12.5196 10.1054 12.7071 10.2929C12.8946 10.4804 13 10.7348 13 11ZM7 10C6.73478 10 6.48043 10.1054 6.29289 10.2929C6.10536 10.4804 6 10.7348 6 11C6 11.2652 6.10536 11.5196 6.29289 11.7071C6.48043 11.8946 6.73478 12 7 12H9C9.26522 12 9.51957 11.8946 9.70711 11.7071C9.89464 11.5196 10 11.2652 10 11C10 10.7348 9.89464 10.4804 9.70711 10.2929C9.51957 10.1054 9.26522 10 9 10H7ZM4 2C3.73478 2 3.48043 2.10536 3.29289 2.29289C3.10536 2.48043 3 2.73478 3 3V6.9C3 7.525 3.562 7.992 4.17 7.894C5.075 7.747 6.792 7.5 8 7.5C9.208 7.5 10.925 7.747 11.83 7.894C11.9741 7.91746 12.1216 7.90934 12.2622 7.8702C12.4029 7.83106 12.5334 7.76183 12.6446 7.6673C12.7559 7.57277 12.8453 7.4552 12.9067 7.32271C12.968 7.19023 12.9999 7.046 13 6.9V3C13 2.73478 12.8946 2.48043 12.7071 2.29289C12.5196 2.10536 12.2652 2 12 2H4ZM4 3H12V6.9C12 6.90133 12 6.90133 12 6.9L11.998 6.904L11.993 6.906H11.989C11.088 6.761 9.299 6.5 8 6.5C6.701 6.5 4.912 6.76 4.01 6.906H4.007L4.002 6.904L4 6.9C4 6.90133 4 6.90133 4 6.9V3Z" fill="black"/>
<path d="M1 2.5C1 1.83696 1.26339 1.20107 1.73223 0.732233C2.20107 0.263392 2.83696 0 3.5 0L12.5 0C13.163 0 13.7989 0.263392 14.2678 0.732233C14.7366 1.20107 15 1.83696 15 2.5V11.5C15 12.318 14.607 13.044 14 13.5V15.5C14 15.6326 13.9473 15.7598 13.8536 15.8536C13.7598 15.9473 13.6326 16 13.5 16H11.5C11.3674 16 11.2402 15.9473 11.1464 15.8536C11.0527 15.7598 11 15.6326 11 15.5V14H5V15.5C5 15.6326 4.94732 15.7598 4.85355 15.8536C4.75979 15.9473 4.63261 16 4.5 16H2.5C2.36739 16 2.24021 15.9473 2.14645 15.8536C2.05268 15.7598 2 15.6326 2 15.5V13.5C1.68951 13.2671 1.4375 12.9652 1.26393 12.618C1.09036 12.2709 1 11.8881 1 11.5V2.5ZM3.5 1C3.10218 1 2.72064 1.15804 2.43934 1.43934C2.15804 1.72064 2 2.10218 2 2.5V11.5C2 11.8978 2.15804 12.2794 2.43934 12.5607C2.72064 12.842 3.10218 13 3.5 13H12.5C12.8978 13 13.2794 12.842 13.5607 12.5607C13.842 12.2794 14 11.8978 14 11.5V2.5C14 2.10218 13.842 1.72064 13.5607 1.43934C13.2794 1.15804 12.8978 1 12.5 1H3.5Z" fill="black"/>
</svg>
