<?xml version="1.0" standalone="no"?>
<!DOCTYPE svg PUBLIC "-//W3C//DTD SVG 20010904//EN"
 "http://www.w3.org/TR/2001/REC-SVG-20010904/DTD/svg10.dtd">
<svg version="1.0" xmlns="http://www.w3.org/2000/svg"
 width="1765.000000pt" height="460.000000pt" viewBox="0 0 1765.000000 460.000000"
 preserveAspectRatio="xMidYMid meet">
<metadata>
Created by potrace 1.16, written by Peter Selinger 2001-2019
</metadata>
<g transform="translate(0.000000,460.000000) scale(0.100000,-0.100000)"
fill="#000000" stroke="none">
<path d="M15518 4577 c8 -10 22 -15 29 -13 11 5 11 1 2 -17 -6 -12 -8 -19 -4
-15 4 4 20 1 36 -7 15 -8 30 -11 33 -7 10 17 64 -1 100 -34 20 -18 39 -34 41
-34 8 0 7 -11 -1 -18 -4 -4 -4 -1 1 7 5 9 4 12 -3 8 -5 -4 -9 -15 -7 -25 1 -9
-2 -23 -8 -30 -7 -9 -5 -11 9 -6 15 5 16 4 4 -4 -10 -8 -19 -7 -29 1 -10 8
-13 8 -8 1 7 -12 -16 -38 -25 -29 -2 3 -15 -7 -29 -21 -13 -14 -19 -24 -14
-22 6 2 11 -1 12 -6 1 -5 7 -12 14 -17 7 -4 14 -15 15 -24 2 -12 -3 -14 -19
-11 -12 3 -17 3 -10 0 6 -3 9 -16 7 -30 -2 -13 0 -24 6 -24 5 0 10 -7 10 -16
0 -13 3 -14 14 -5 12 10 13 8 8 -11 -5 -21 -4 -22 11 -9 15 12 21 9 18 -11 0
-4 13 -15 29 -23 17 -9 30 -13 30 -9 0 4 8 0 17 -7 11 -9 14 -9 10 -2 -7 11
67 89 82 87 3 0 21 3 40 7 l33 7 -5 -39 c-5 -35 -2 -41 19 -38 4 0 11 -5 15
-13 7 -11 9 -11 9 1 0 7 6 11 15 8 8 -4 17 -2 21 4 4 7 10 6 18 0 7 -6 16 -8
20 -4 10 11 37 12 30 2 -3 -5 -10 -6 -16 -3 -7 5 -8 2 -3 -5 11 -19 50 23 64
69 6 22 16 40 21 40 11 0 44 60 33 60 -5 0 -3 4 4 8 6 4 13 14 15 21 7 30 31
51 45 39 7 -6 13 -7 14 -2 0 5 5 -2 11 -16 6 -14 9 -41 8 -60 -2 -19 -4 -48
-5 -65 -3 -51 -5 -56 -14 -50 -5 3 -13 -4 -16 -16 -6 -17 -9 -19 -17 -8 -7 10
-8 7 -3 -11 10 -40 15 -63 21 -101 6 -35 5 -36 -23 -34 -15 1 -41 -4 -56 -12
-38 -19 -68 -93 -47 -118 5 -6 7 -15 3 -19 -15 -15 -10 -36 15 -58 14 -13 21
-16 17 -8 -8 13 -7 13 8 1 9 -7 17 -10 17 -6 0 18 29 -19 35 -45 3 -15 14 -35
24 -45 11 -9 17 -24 14 -33 -2 -10 5 -26 18 -37 13 -12 19 -14 14 -5 -7 12 -6
13 6 4 22 -16 38 -12 80 25 21 19 49 36 61 38 27 5 32 5 177 2 l115 -2 21 -31
c21 -31 41 -39 60 -25 18 13 76 20 107 14 17 -4 34 -18 43 -36 9 -16 13 -29
10 -29 -3 0 -1 -9 4 -19 8 -14 6 -25 -10 -45 -12 -15 -24 -25 -27 -22 -3 4
-14 -2 -24 -11 -15 -14 -18 -14 -13 -2 4 11 0 15 -14 14 -23 -1 -51 -23 -51
-40 0 -6 -8 -19 -18 -28 -20 -19 -47 -23 -37 -7 4 6 -9 2 -27 -9 -18 -10 -32
-24 -31 -30 2 -7 -5 -8 -21 -1 -13 5 -27 6 -30 3 -3 -4 -6 0 -6 8 0 9 -10 15
-25 15 -18 0 -22 -3 -14 -12 14 -17 -14 -12 -37 6 -10 8 -15 10 -11 4 3 -6 0
-11 -8 -11 -8 0 -13 3 -11 6 6 10 -18 26 -39 26 -12 0 -19 6 -17 14 2 10 -1
12 -10 4 -21 -16 -61 -10 -64 10 -1 9 2 15 7 11 5 -3 6 -11 2 -17 -4 -7 1 -6
10 2 13 11 15 17 6 28 -10 11 -14 11 -29 -2 -9 -8 -20 -12 -23 -8 -4 3 -7 -1
-7 -10 0 -8 -16 -30 -35 -48 -18 -18 -31 -37 -28 -42 3 -6 1 -7 -5 -3 -7 4
-12 2 -12 -4 0 -7 -7 -5 -16 5 -13 13 -19 13 -33 3 -10 -8 -10 -5 3 10 16 19
17 25 6 35 -7 6 -10 7 -7 2 3 -6 -4 -11 -16 -12 -12 0 -16 1 -9 4 6 3 9 10 6
15 -4 6 -2 8 4 4 12 -7 45 22 37 34 -7 11 -40 6 -40 -6 -1 -5 -6 -19 -13 -32
-7 -12 -10 -28 -6 -35 4 -6 3 -9 -1 -4 -11 10 -55 -32 -55 -53 0 -13 10 -16
50 -15 28 1 52 3 55 5 3 1 15 3 27 4 13 0 28 12 36 26 l13 25 -3 -25 c-2 -20
2 -25 20 -26 35 -2 37 -3 25 -15 -6 -6 -9 -18 -6 -27 4 -9 2 -13 -4 -9 -6 4
-13 0 -17 -8 -3 -8 -12 -15 -19 -15 -8 0 -17 -14 -21 -30 -8 -42 -8 -45 7 -45
6 0 12 -11 12 -25 1 -15 6 -24 14 -22 7 1 10 -2 7 -7 -9 -15 -39 -6 -42 12 -1
10 1 15 5 12 4 -2 8 2 8 10 0 11 -4 12 -14 4 -14 -12 -18 -51 -6 -62 3 -4 12
-2 20 4 7 6 13 8 13 4 0 -4 6 -2 14 4 9 8 16 8 20 2 4 -5 15 -8 26 -6 11 2 20
0 20 -5 0 -4 7 -11 16 -14 14 -5 15 -4 5 8 -10 12 -9 14 3 12 26 -4 27 -12 6
-31 -11 -10 -20 -14 -20 -10 0 4 -9 0 -21 -11 -11 -10 -20 -14 -19 -9 5 21 -1
23 -27 10 -15 -8 -31 -11 -37 -8 -6 4 -5 -1 3 -10 12 -15 12 -17 -4 -10 -15 5
-17 3 -12 -11 4 -10 7 -23 7 -29 1 -7 10 -1 20 12 11 13 20 19 20 14 0 -6 -8
-17 -18 -26 -14 -13 -21 -14 -30 -5 -9 9 -12 8 -12 -4 0 -9 -5 -20 -12 -24 -7
-5 -8 -2 -3 7 5 8 -4 3 -20 -11 -16 -14 -25 -19 -20 -11 6 10 4 12 -4 7 -7 -5
-10 -14 -7 -22 3 -8 0 -11 -8 -8 -8 3 -17 0 -22 -7 -4 -8 -3 -10 4 -5 8 4 10
2 6 -8 -3 -8 -17 -17 -31 -21 -16 -4 -23 -11 -19 -20 3 -9 -1 -15 -10 -15 -8
0 -13 -4 -9 -9 3 -5 1 -12 -5 -16 -6 -3 -8 -17 -6 -31 3 -14 1 -22 -5 -19 -5
4 -6 11 -3 17 4 6 2 8 -4 4 -6 -3 -9 -18 -6 -32 3 -14 1 -23 -5 -20 -5 4 -8
-13 -6 -39 1 -25 -2 -48 -7 -51 -4 -3 -6 -9 -3 -14 3 -5 1 -11 -5 -15 -5 -3
-10 0 -10 7 -1 7 -7 2 -15 -12 -8 -14 -14 -19 -15 -12 0 22 -25 8 -31 -18 -7
-30 10 -58 22 -38 7 10 9 9 9 -4 0 -10 -5 -18 -11 -18 -5 0 -8 -4 -4 -10 3 -5
12 -7 20 -3 11 4 13 1 8 -13 -3 -9 -2 -15 3 -12 5 3 19 2 30 -2 24 -9 38 -46
22 -57 -6 -3 -8 -1 -4 5 3 6 2 13 -3 16 -10 7 -9 -13 2 -30 4 -7 0 -17 -7 -24
-8 -6 -13 -19 -11 -29 2 -12 -3 -17 -20 -17 -12 0 -22 5 -21 11 3 18 17 35 26
30 4 -3 13 2 20 10 11 13 10 14 -6 9 -10 -4 -23 -10 -29 -14 -5 -4 -18 -6 -27
-5 -10 2 -20 -1 -24 -6 -3 -5 -11 -6 -17 -2 -20 13 -36 12 -48 -3 -6 -8 -15
-12 -18 -9 -4 2 -8 -2 -8 -9 0 -15 14 -15 35 -3 7 5 9 13 6 19 -4 7 -2 8 5 4
6 -4 9 -11 6 -16 -3 -5 -1 -11 5 -15 5 -3 10 2 11 12 0 16 1 16 9 -2 l9 -20 1
20 c1 12 4 15 7 7 6 -16 -16 -44 -28 -36 -5 3 -8 0 -7 -8 2 -9 -10 -13 -42
-14 -27 0 -44 -5 -43 -12 2 -6 -7 -9 -18 -7 -18 4 -19 2 -7 -12 9 -12 9 -15 1
-9 -7 4 -13 3 -13 -2 0 -16 29 -78 30 -64 0 7 -4 21 -9 31 -7 13 -6 18 4 18 8
0 14 -3 13 -6 -2 -23 4 -41 13 -39 6 2 13 -5 14 -15 2 -9 -1 -15 -6 -11 -5 3
-6 10 -3 16 4 6 2 8 -4 5 -11 -8 -11 -25 2 -45 5 -8 3 -12 -6 -10 -7 2 -16 12
-20 23 -4 11 -6 -5 -4 -35 1 -40 6 -54 16 -52 10 2 11 0 3 -10 -11 -14 -10
-33 13 -156 8 -45 17 -106 20 -135 3 -29 8 -55 10 -58 2 -4 6 -24 9 -45 12
-90 28 -142 41 -137 8 3 14 13 15 22 0 11 2 12 6 3 3 -7 -4 -24 -16 -36 -17
-18 -20 -28 -13 -46 8 -20 9 -21 15 -6 4 10 4 23 0 28 -3 7 -1 8 6 4 6 -4 9
-18 7 -31 -3 -13 2 -29 10 -36 9 -8 11 -16 5 -23 -11 -13 -3 -30 17 -34 14 -2
10 41 -6 61 -5 7 -8 21 -6 32 1 10 -2 25 -7 31 -7 8 -6 14 1 19 6 3 7 11 4 17
-4 7 -2 8 5 4 9 -6 9 -11 1 -21 -8 -9 -8 -15 0 -20 5 -3 8 -16 6 -28 -4 -24
18 -64 28 -49 3 5 2 12 -1 16 -11 10 -12 37 -2 30 5 -3 7 -9 4 -13 -2 -5 5
-17 16 -27 21 -19 21 -19 16 11 -2 17 0 39 5 50 8 18 8 18 4 -2 -5 -30 10 -39
18 -11 3 13 -1 33 -9 45 -10 14 -11 24 -5 28 6 4 9 3 8 -2 -2 -4 2 -9 7 -10 6
-2 10 1 10 6 0 5 3 13 8 17 4 4 7 0 7 -10 0 -11 5 -15 13 -10 9 5 9 4 0 -6 -9
-10 -8 -19 4 -39 14 -23 13 -22 -10 4 -34 39 -34 26 -1 -31 28 -47 40 -56 31
-24 -3 11 -1 23 4 26 5 3 5 14 -2 25 -5 11 -8 32 -6 47 4 27 4 27 6 -3 1 -16
5 -37 11 -45 5 -8 5 -19 1 -25 -5 -5 -5 -20 -1 -31 6 -16 16 -21 38 -19 19 1
29 -2 29 -11 0 -10 -4 -11 -13 -3 -8 7 -14 7 -19 -1 -5 -8 -11 -8 -19 -1 -9 8
-18 6 -30 -7 -15 -18 -15 -20 1 -34 20 -16 64 -18 62 -3 -1 6 -5 9 -10 8 -4
-2 -6 4 -2 13 3 9 9 12 12 7 11 -14 31 -14 31 1 0 9 7 13 20 11 13 -3 20 2 21
13 0 15 1 15 8 -1 4 -10 11 -18 16 -18 5 0 12 8 16 18 7 17 8 17 9 -2 l1 -20
9 20 c8 18 9 18 9 2 1 -10 6 -15 11 -12 6 4 9 3 8 -2 -2 -4 2 -8 7 -8 6 0 9 4
7 8 -1 5 2 6 8 2 5 -3 10 2 11 12 0 11 3 13 6 5 3 -7 -2 -21 -11 -31 -9 -10
-13 -22 -9 -27 5 -5 -3 0 -17 12 -26 21 -50 26 -50 9 0 -5 4 -10 9 -10 5 0 12
-3 15 -8 3 -4 3 -5 -1 -2 -3 3 -11 -5 -17 -16 -6 -12 -15 -21 -21 -20 -5 2
-12 -6 -16 -16 -7 -17 -8 -17 -8 0 -1 10 -5 16 -10 13 -15 -10 -1 -44 17 -41
10 1 16 9 14 16 -2 8 0 11 4 7 4 -4 14 -2 23 5 14 10 14 10 3 -5 -8 -10 -9
-19 -3 -22 5 -3 12 0 14 6 4 10 6 10 6 0 1 -7 6 -10 11 -7 8 5 7 11 -1 21 -7
9 -8 14 -3 13 21 -4 26 2 14 16 -7 9 -10 18 -6 22 3 3 6 1 6 -6 0 -7 4 -10 9
-7 8 5 8 -22 1 -31 -2 -2 -3 -7 -4 -12 -2 -13 -16 -26 -28 -26 -6 0 -12 -7
-13 -16 -3 -15 0 -15 23 -3 14 7 29 11 33 8 4 -2 6 4 4 16 -2 11 1 22 6 25 5
4 6 11 3 17 -4 7 -2 8 4 4 7 -4 12 -1 12 9 0 9 -4 13 -10 10 -5 -3 -10 -1 -10
4 0 6 5 11 11 11 5 0 7 5 4 10 -3 5 -2 10 4 10 5 0 9 -17 8 -37 -1 -25 3 -37
11 -36 7 2 11 0 9 -5 -1 -4 2 -8 7 -10 6 -1 11 13 12 30 2 43 2 44 16 30 9 -9
16 -8 31 5 10 10 17 13 15 8 -2 -6 2 -11 7 -12 6 -1 9 5 7 13 -4 22 19 17 25
-6 3 -11 9 -17 14 -14 5 3 8 0 7 -7 -2 -7 6 -13 17 -14 11 0 25 -4 31 -8 7 -4
17 0 23 7 14 16 4 25 -22 21 -9 -2 -15 0 -12 5 5 9 24 8 40 -1 6 -4 18 -5 27
-4 27 5 39 -17 21 -40 -12 -16 -14 -17 -11 -3 2 9 -1 16 -7 15 -5 -1 -9 -6 -7
-10 1 -5 -2 -6 -7 -3 -5 4 -13 2 -16 -4 -5 -8 -11 -8 -20 0 -8 7 -15 7 -19 1
-4 -5 -2 -12 4 -16 6 -4 8 -11 5 -16 -10 -15 22 -10 35 6 12 14 15 14 30 0 14
-13 19 -13 23 -3 4 11 6 11 6 0 1 -8 6 -10 14 -6 6 4 9 4 5 -1 -4 -4 -3 -14 3
-21 12 -15 -11 -14 -32 2 -8 6 -24 9 -36 8 -13 -1 -31 -2 -40 -3 -16 -1 -16
-3 -3 -11 11 -7 7 -10 -20 -11 -19 -1 -27 -3 -17 -6 9 -2 15 -9 11 -14 -3 -5
-10 -6 -16 -3 -7 4 -8 2 -4 -4 4 -7 1 -12 -9 -12 -10 0 -13 5 -9 13 4 6 -1 4
-12 -5 -15 -13 -23 -15 -31 -7 -8 8 -13 8 -18 0 -4 -7 -1 -10 7 -9 7 2 12 -4
10 -12 -3 -13 -2 -13 12 0 20 20 107 15 100 -5 -6 -14 12 -15 34 -2 24 15 12
-12 -15 -34 -16 -12 -20 -19 -11 -16 12 4 18 0 21 -16 3 -17 5 -16 7 8 l2 30
9 -30 8 -30 -3 33 c-1 18 1 35 6 38 4 3 8 -2 8 -11 0 -9 5 -13 10 -10 6 4 8
12 4 18 -3 7 1 3 10 -7 13 -16 18 -17 31 -6 12 10 15 10 15 0 0 -7 7 -10 15
-6 11 4 15 -1 15 -17 0 -12 3 -17 8 -11 4 6 19 10 35 9 15 -1 25 1 21 4 -3 3
-14 6 -25 6 -10 0 -19 5 -19 10 0 6 4 10 9 10 5 0 12 3 16 7 4 3 -1 5 -12 3
-10 -1 -25 4 -35 12 -11 10 -18 11 -23 3 -3 -5 -11 -8 -16 -5 -5 4 -9 -1 -9
-10 0 -9 -5 -13 -10 -10 -6 4 -8 10 -5 15 3 4 -3 7 -12 5 -26 -4 -36 5 -23 20
6 8 21 12 32 10 11 -3 18 -2 14 2 -9 9 15 34 26 27 5 -3 4 -13 -4 -22 -12 -15
-11 -16 4 -3 10 7 15 18 11 24 -4 6 -1 7 8 1 8 -5 28 -10 44 -11 17 0 31 -2
33 -3 1 -2 5 -3 10 -4 4 -1 12 -5 19 -9 7 -4 10 -1 9 10 -2 10 -8 18 -14 18
-6 0 -14 3 -18 7 -3 4 3 6 15 3 18 -3 21 1 22 33 1 23 3 29 6 15 2 -13 9 -23
14 -23 5 0 9 -6 9 -13 0 -8 14 -12 40 -11 34 1 48 -8 19 -12 -5 -1 -11 -3 -14
-4 -3 -1 -20 -3 -37 -4 -29 -1 -33 -4 -30 -25 2 -15 0 -21 -7 -16 -7 4 -10 1
-9 -7 2 -8 -6 -13 -19 -12 -13 1 -20 -2 -18 -6 3 -5 13 -7 22 -6 17 3 46 -21
56 -45 4 -10 6 -9 6 3 1 10 6 17 13 15 7 -1 12 3 13 10 0 15 15 30 15 15 0
-24 16 -11 18 15 2 26 2 26 -18 8 -19 -18 -20 -17 -21 1 0 18 -1 18 -9 -1 l-9
-20 -1 20 c-1 18 -2 18 -11 -3 -5 -13 -13 -20 -19 -17 -6 4 -4 12 5 21 8 9 12
20 9 26 -5 7 -2 8 7 2 17 -10 98 -13 104 -3 3 4 18 5 33 4 18 -1 29 3 29 11 0
7 -4 11 -9 8 -4 -3 -8 0 -8 5 0 6 -9 11 -20 11 -12 0 -20 7 -20 18 0 14 2 15
10 2 8 -12 10 -10 11 10 1 22 2 23 7 5 12 -36 71 -40 89 -5 8 15 13 19 13 9 0
-12 8 -14 30 -11 16 2 28 7 26 11 -3 4 6 7 18 7 12 0 23 -6 23 -13 0 -10 -4
-10 -14 -1 -11 8 -12 7 -7 -5 6 -17 28 -18 53 -3 10 6 12 5 7 -2 -4 -8 4 -17
21 -24 39 -16 52 -18 58 -8 3 5 -4 7 -16 5 -12 -2 -18 -1 -15 3 4 4 13 7 19 7
7 0 11 11 9 25 -2 18 0 21 6 11 12 -16 117 -28 107 -11 -3 5 -10 8 -15 5 -5
-3 -12 0 -16 7 -4 7 -3 10 1 5 5 -4 16 0 25 8 16 14 17 14 16 -7 -1 -14 4 -22
12 -20 8 1 11 -2 7 -8 -4 -6 -9 -9 -12 -7 -2 3 -20 1 -39 -3 -19 -4 -36 -4
-39 0 -6 10 -32 7 -42 -5 -5 -4 -1 -4 7 0 12 7 13 6 3 -7 -7 -8 -10 -18 -6
-21 3 -4 -11 -8 -33 -8 -23 -1 -30 -4 -16 -6 14 -3 22 -12 23 -26 0 -21 1 -21
8 -2 5 11 14 20 22 20 8 0 14 10 14 23 0 12 3 22 8 22 4 0 10 0 13 0 4 0 1 -7
-6 -15 -7 -8 -11 -15 -9 -16 18 -5 58 -5 53 0 -3 3 -10 6 -15 6 -5 0 -10 5
-11 10 -2 6 14 11 36 12 l38 2 -18 -21 c-11 -12 -13 -18 -6 -14 7 4 12 2 12
-7 0 -7 6 -14 13 -14 8 0 14 6 14 13 0 7 -3 12 -6 11 -3 -1 -6 3 -6 8 0 6 3 9
7 8 4 -2 8 764 8 1702 l0 1705 -990 0 c-790 0 -990 -3 -984 -12 6 -10 4 -10
-7 0 -7 6 -22 12 -34 12 -12 0 -27 -6 -34 -12 -9 -8 -12 -9 -7 -1 4 8 -8 11
-43 10 -47 -2 -49 -3 -33 -20z m1397 -1976 c0 -2 9 -4 19 -6 10 -2 23 -10 27
-17 5 -7 9 -8 9 -2 0 15 79 9 94 -7 8 -9 8 -10 -2 -4 -10 5 -13 1 -10 -16 2
-19 -2 -24 -22 -24 -14 -1 -34 5 -45 12 -16 10 -51 11 -62 3 -2 -2 -6 -3 -10
-4 -18 -3 -52 -33 -45 -40 4 -5 -10 -6 -30 -3 -21 3 -38 1 -38 -4 0 -5 -5 -9
-11 -9 -5 0 -7 5 -3 12 4 7 3 8 -4 4 -7 -4 -12 -14 -12 -22 0 -25 -49 -16 -75
14 -25 28 -33 48 -15 37 6 -3 10 -1 10 5 0 6 4 9 9 5 6 -3 13 1 18 8 11 17 73
61 73 51 0 -5 5 -3 10 2 9 9 115 13 115 5z"/>
<path d="M13225 4215 c-123 -42 -255 -64 -610 -100 -82 -8 -188 -20 -235 -25
-47 -5 -139 -14 -205 -20 -66 -7 -172 -18 -235 -26 -142 -18 -321 -39 -505
-59 -77 -8 -174 -20 -215 -25 -41 -6 -176 -22 -300 -35 -124 -14 -315 -36
-425 -50 -476 -57 -1025 -108 -1170 -108 -60 1 -115 -4 -122 -9 -7 -6 -14 -5
-18 2 -5 8 -11 7 -23 -2 -13 -11 -14 -11 -8 0 6 10 1 11 -21 6 -15 -4 -31 -9
-35 -11 -14 -8 -8 -70 7 -83 8 -7 15 -23 15 -36 0 -34 15 -37 61 -13 l42 21
-6 -35 c-3 -19 -19 -64 -36 -100 -17 -36 -31 -69 -31 -72 0 -3 -14 -36 -31
-73 -17 -37 -41 -89 -54 -117 -12 -27 -37 -86 -55 -130 -18 -44 -36 -84 -40
-90 -4 -5 -24 -50 -45 -100 -20 -49 -43 -101 -50 -115 -8 -14 -37 -79 -65
-145 -29 -66 -57 -124 -63 -130 -7 -5 -13 -21 -14 -35 0 -14 -21 -68 -46 -120
-25 -52 -67 -149 -92 -215 -26 -66 -52 -125 -56 -131 -5 -6 -18 -35 -28 -65
-36 -98 -73 -184 -89 -201 -8 -10 -12 -18 -8 -18 3 0 -1 -17 -10 -37 -9 -21
-32 -76 -51 -123 -19 -47 -41 -89 -49 -93 -8 -5 -12 -12 -9 -17 5 -8 -10 -43
-88 -210 -44 -95 -165 -364 -202 -450 -37 -84 -37 -84 -93 -105 -26 -10 -58
-24 -71 -32 l-23 -15 38 -39 c21 -21 45 -39 54 -39 8 0 24 -17 35 -37 11 -21
37 -67 58 -103 20 -35 37 -73 37 -82 0 -10 7 -18 15 -18 8 0 15 7 15 15 0 14
-102 207 -123 233 -8 10 -1 23 29 52 39 39 40 39 149 49 61 6 196 15 300 21
105 5 262 16 350 25 241 22 637 54 750 60 55 2 170 11 255 19 85 8 196 17 245
21 50 3 115 8 145 10 47 4 51 3 30 -7 -35 -16 -48 -18 -107 -21 -29 -1 -53 -5
-53 -9 0 -4 -12 -5 -26 -2 -14 3 -31 0 -38 -5 -7 -6 -21 -10 -31 -10 -99 2
-249 -11 -255 -21 -5 -9 -13 -9 -27 -1 -11 5 -22 9 -24 7 -2 -2 -22 -7 -44
-10 -22 -4 -53 -8 -70 -11 -33 -5 -89 -11 -180 -20 -33 -3 -80 -8 -105 -11
-64 -9 -131 -14 -245 -20 -55 -2 -114 -9 -132 -13 -22 -6 -33 -6 -37 2 -3 8
-5 8 -5 -1 -1 -9 -12 -11 -38 -7 -30 4 -34 3 -18 -5 18 -9 17 -10 -8 -6 -15 2
-30 -1 -34 -7 -4 -6 -1 -7 8 -2 8 5 11 4 6 -1 -5 -5 -32 -9 -60 -10 -33 0 -51
-5 -50 -12 2 -6 -3 -9 -11 -6 -8 3 -16 -3 -19 -16 -3 -12 -11 -20 -19 -18 -7
1 -13 -2 -13 -7 0 -6 20 -9 45 -9 72 3 236 14 350 24 220 19 265 24 273 26 4
1 16 2 27 3 14 1 20 8 20 25 0 14 4 27 9 30 4 3 113 15 242 26 129 11 311 27
404 35 94 9 275 22 403 30 234 15 278 24 266 55 -19 48 -20 147 -1 177 4 6 2
15 -3 18 -8 5 -6 13 6 26 17 19 18 19 39 -1 14 -13 29 -18 41 -14 15 5 16 4 5
-4 -12 -9 -8 -18 26 -55 22 -24 43 -50 46 -58 5 -11 8 -11 17 4 20 31 57 17
44 -17 -5 -13 -10 -14 -20 -5 -7 6 -18 8 -23 5 -14 -9 -2 -36 17 -36 8 0 13
-3 9 -6 -3 -3 3 -15 13 -26 19 -20 23 -20 146 -8 l126 13 -7 51 c-3 28 -11 56
-17 63 -6 7 -7 13 -2 13 4 0 -3 12 -17 27 -13 14 -19 23 -12 19 6 -3 15 -2 18
4 9 14 164 9 175 -5 5 -6 10 -44 12 -85 l3 -75 40 0 40 0 0 95 c0 98 6 120 31
120 8 0 27 12 41 26 14 14 23 19 20 10 -3 -8 -2 -18 3 -21 5 -3 7 -12 4 -19
-3 -8 -1 -17 5 -20 6 -4 5 -18 -3 -39 -8 -17 -11 -50 -9 -72 2 -22 5 -45 5
-52 1 -9 25 -10 87 -6 79 5 105 13 107 31 0 4 7 21 15 37 l13 30 4 -43 c3 -38
6 -43 25 -40 14 2 20 9 18 18 -2 8 -6 41 -9 73 -4 51 -2 61 19 83 27 29 33 29
59 7 19 -17 29 -70 11 -58 -5 3 -13 1 -16 -5 -4 -6 -1 -9 7 -8 7 2 12 -3 10
-9 -1 -7 6 -13 15 -13 13 0 6 -11 -24 -40 l-42 -40 30 0 c25 0 33 6 45 35 8
20 12 40 9 45 -4 6 -2 10 4 10 6 0 19 17 30 38 11 20 34 53 50 72 17 19 32 38
32 43 1 4 2 15 3 25 2 28 16 42 42 42 21 0 24 -4 24 -37 1 -198 6 -253 20
-254 46 -3 233 13 525 46 72 8 224 22 339 31 115 9 219 18 230 20 26 5 208 17
266 18 42 1 45 -1 48 -27 3 -25 6 -27 35 -23 18 3 73 8 122 11 50 4 104 8 120
10 17 2 71 7 120 10 50 4 104 8 120 10 17 3 62 7 100 10 159 13 246 24 262 34
16 9 16 10 1 11 -9 0 -18 4 -20 9 -6 19 -55 23 -72 6 -9 -9 -16 -13 -16 -8 0
4 -11 9 -25 9 -15 1 -22 -2 -18 -9 4 -6 1 -7 -8 -1 -21 13 -38 13 -33 0 5 -13
-79 -16 -92 -4 -4 5 -14 8 -23 8 -11 0 -11 -3 5 -16 18 -14 18 -15 -3 -4 -13
6 -23 15 -23 21 0 6 -5 7 -10 4 -6 -4 -7 -12 -4 -18 4 -7 4 -9 -1 -5 -4 4 -15
2 -24 -5 -14 -11 -14 -10 -2 6 19 24 6 34 -17 14 -14 -13 -21 -14 -30 -5 -9 9
-12 9 -12 -1 0 -7 -5 -9 -11 -5 -6 3 -15 0 -20 -7 -5 -8 -9 -9 -9 -4 0 6 -12
11 -27 10 -19 0 -27 -5 -25 -15 3 -11 -1 -10 -16 3 -24 22 -36 22 -28 0 5 -15
4 -15 -9 1 -8 11 -15 15 -15 10 0 -6 -39 -10 -99 -9 -68 1 -98 -2 -93 -9 3 -6
-1 -5 -10 2 -12 9 -18 10 -23 2 -5 -8 -11 -8 -19 -1 -7 6 -16 8 -20 4 -11 -12
-170 -10 -178 2 -5 6 -8 6 -8 -2 0 -6 -9 -10 -20 -8 -11 2 -22 -1 -26 -6 -4
-6 -11 -6 -20 2 -11 9 -14 8 -14 -2 0 -11 -2 -11 -10 1 -5 8 -10 10 -10 3 0
-6 -13 -10 -30 -9 -16 1 -30 -2 -30 -7 0 -4 -6 -5 -12 0 -19 11 -39 13 -32 2
3 -5 11 -6 17 -3 7 4 8 3 4 -2 -4 -4 -19 -9 -33 -10 -19 -1 -24 3 -19 15 5 13
4 14 -6 4 -16 -16 -33 -17 -23 -1 5 7 3 8 -7 2 -8 -5 -23 -9 -34 -9 -11 -1
-19 -7 -17 -14 1 -7 -2 -10 -7 -6 -6 3 -8 13 -4 23 3 11 -1 8 -12 -6 -13 -17
-20 -20 -30 -12 -10 8 -15 8 -20 0 -5 -8 -11 -7 -23 2 -13 11 -14 11 -8 0 6
-11 1 -13 -20 -11 -16 2 -35 -1 -43 -5 -9 -6 -12 -5 -7 2 3 6 2 14 -4 17 -6 4
-9 1 -8 -7 4 -18 -72 -24 -83 -6 -5 7 -9 8 -9 2 0 -7 -18 -10 -45 -9 -24 1
-43 -1 -40 -5 2 -4 -15 -6 -39 -6 -24 1 -42 5 -38 10 3 5 1 6 -5 3 -21 -13
-63 -15 -63 -4 0 8 -4 7 -9 -2 -8 -12 -14 -12 -41 -1 -17 7 -27 16 -23 21 4 4
60 10 123 14 63 3 126 8 140 10 14 3 52 7 85 10 33 3 92 10 130 15 39 5 108
12 155 15 47 3 110 7 140 10 30 3 89 7 130 11 41 3 82 7 90 9 31 6 127 15 220
20 139 8 227 14 395 30 83 7 254 21 380 31 l230 17 62 -39 c34 -21 62 -45 63
-51 0 -7 -13 -45 -28 -85 -16 -40 -37 -99 -46 -130 -10 -32 -22 -58 -27 -58
-5 0 -9 -5 -9 -11 0 -6 7 -9 16 -7 10 2 25 30 39 73 44 132 71 195 92 215 12
10 34 36 49 56 23 29 25 37 13 45 -8 5 -16 9 -19 10 -3 0 -12 2 -20 4 -8 2
-26 6 -40 9 -14 3 -37 8 -52 12 -24 5 -37 24 -89 127 -33 67 -72 142 -86 167
-14 25 -43 81 -66 124 -22 43 -69 129 -104 190 -36 61 -67 123 -70 139 -3 15
-9 27 -14 27 -5 0 -18 19 -30 43 -12 23 -26 44 -30 47 -13 9 -81 152 -75 158
3 3 -1 10 -9 16 -17 12 -36 45 -96 161 -23 44 -45 82 -50 83 -5 2 -9 9 -9 15
0 15 -108 226 -121 237 -3 3 -18 28 -34 55 -15 28 -35 61 -44 75 -16 22 -45
86 -46 100 0 3 -13 25 -29 49 -15 24 -50 87 -78 140 -28 53 -63 115 -78 138
-16 22 -31 50 -34 61 -4 11 -13 23 -21 26 -8 3 -15 16 -15 30 0 14 -4 27 -9
31 -6 3 -27 39 -48 80 -28 56 -42 74 -53 69 -22 -10 -99 -20 -315 -44 -104
-11 -224 -25 -265 -30 -41 -6 -120 -15 -175 -20 -55 -5 -111 -12 -125 -15 -14
-3 -101 -12 -195 -20 -93 -9 -195 -20 -225 -25 -30 -5 -100 -14 -155 -20 -157
-17 -197 -21 -218 -26 -23 -4 -335 -38 -822 -88 -82 -9 -220 -25 -305 -36 -85
-11 -220 -26 -300 -35 -80 -8 -183 -20 -230 -25 -47 -5 -105 -12 -130 -14 -25
-3 -85 -10 -135 -15 -49 -6 -187 -19 -305 -31 -118 -12 -241 -25 -272 -29 -31
-4 -64 -4 -73 1 -14 8 -14 12 3 36 10 15 29 49 43 75 13 27 31 52 39 57 20 10
189 30 310 36 52 3 124 9 160 14 36 5 115 14 175 20 166 16 194 20 270 30 39
5 97 12 130 14 33 3 105 10 160 15 93 10 166 19 470 56 66 8 145 17 175 20 30
3 93 10 139 16 47 5 103 11 125 14 23 2 79 8 126 14 134 16 340 40 397 45 28
3 104 12 170 20 65 8 147 18 183 21 36 3 90 10 120 15 30 5 102 14 160 20 228
24 461 51 579 66 68 9 141 17 163 18 42 1 47 -3 109 -85 44 -57 43 -26 -2 47
-52 87 -61 97 -68 85 -3 -5 -51 -15 -106 -21 -55 -6 -131 -16 -170 -21 -38 -5
-133 -16 -210 -24 -77 -8 -176 -20 -220 -25 -44 -5 -145 -16 -225 -25 -137
-15 -164 -18 -250 -30 -19 -2 -62 -7 -95 -10 -33 -3 -109 -12 -170 -20 -60 -8
-137 -17 -170 -20 -33 -4 -172 -19 -310 -35 -137 -16 -279 -32 -315 -35 -36
-4 -72 -9 -80 -10 -8 -1 -44 -6 -80 -9 -36 -4 -121 -13 -190 -21 -315 -37
-501 -58 -630 -69 -36 -4 -103 -11 -150 -16 -47 -5 -143 -14 -215 -20 -71 -6
-148 -13 -170 -16 -136 -20 -287 -29 -292 -19 -2 7 11 38 29 71 18 32 39 71
47 87 14 26 39 39 71 35 8 -1 49 1 90 5 41 4 111 9 154 12 43 3 82 8 86 10 3
2 49 7 101 10 52 3 135 10 184 15 97 11 122 14 290 29 61 6 144 15 185 21 41
5 156 19 255 30 99 11 243 29 320 40 129 18 311 39 395 45 19 2 42 5 50 8 13
5 92 12 225 22 17 2 41 5 55 8 14 3 66 9 115 13 97 7 112 9 225 24 41 5 99 12
128 15 30 3 57 7 61 10 5 2 53 7 107 10 55 4 113 8 129 10 61 9 333 35 405 40
163 10 200 14 209 19 18 11 39 -6 81 -65 23 -32 44 -59 47 -59 11 0 -9 53 -27
73 -23 24 -56 105 -46 114 3 3 17 1 31 -5 14 -7 41 -12 59 -12 31 0 36 5 59
53 15 29 26 68 26 90 -1 33 -4 37 -27 37 -15 -1 -45 -7 -67 -15z m142 -642
c50 -78 66 -115 54 -122 -6 -4 -129 -19 -273 -34 -145 -15 -294 -32 -333 -37
-38 -5 -144 -17 -235 -25 -91 -9 -196 -20 -235 -25 -38 -5 -104 -12 -145 -15
-79 -5 -123 -10 -230 -25 -36 -5 -85 -12 -110 -14 -25 -3 -106 -13 -180 -21
-144 -17 -208 -23 -308 -30 -34 -2 -66 -6 -70 -9 -4 -2 -81 -11 -172 -20 -91
-9 -178 -19 -195 -21 -16 -3 -138 -17 -269 -31 -132 -13 -242 -27 -246 -29 -3
-2 -65 -9 -136 -15 -138 -12 -148 -13 -324 -35 -63 -8 -203 -23 -310 -35 -107
-11 -258 -27 -335 -35 -230 -25 -320 -32 -328 -28 -7 4 25 68 71 144 21 34 27
37 85 43 34 4 80 9 102 11 70 8 279 28 310 30 17 1 48 5 70 8 22 4 74 9 115
12 41 3 120 12 175 20 55 8 127 16 160 19 33 3 121 13 195 21 74 8 203 22 285
30 83 8 177 19 210 24 33 6 87 13 120 15 66 5 321 33 363 40 15 2 63 7 107 11
44 3 91 8 105 10 14 3 88 12 165 19 77 8 230 26 340 40 217 28 550 67 793 92
84 9 231 26 325 38 267 34 248 35 284 -21z m135 -253 c31 -47 54 -88 50 -92
-4 -4 -36 -9 -72 -13 -36 -3 -132 -12 -215 -20 -82 -8 -177 -17 -210 -20 -32
-3 -93 -10 -135 -16 -41 -5 -147 -16 -235 -25 -88 -8 -173 -17 -190 -19 -16
-2 -84 -9 -150 -15 -66 -6 -169 -18 -230 -25 -60 -8 -137 -17 -170 -20 -33 -3
-127 -13 -210 -21 -82 -9 -170 -18 -195 -21 -25 -2 -88 -9 -140 -14 -52 -5
-165 -16 -250 -24 -190 -18 -204 -20 -360 -38 -69 -9 -162 -18 -207 -22 -46
-3 -91 -8 -100 -9 -19 -4 -70 -9 -263 -26 -63 -6 -155 -15 -205 -21 -350 -38
-367 -40 -675 -69 -63 -6 -179 -17 -257 -25 -78 -8 -154 -15 -168 -15 -27 0
-35 24 -11 33 7 3 16 16 19 30 4 13 18 44 32 69 l26 46 92 8 c50 4 101 8 112
9 11 1 79 7 150 14 72 6 164 16 205 21 41 6 102 12 135 14 33 3 101 10 150 16
50 6 106 13 125 15 19 2 71 9 115 14 44 6 109 12 144 15 35 3 77 8 95 11 17 3
83 9 146 15 63 5 171 16 240 25 136 16 281 33 347 40 24 2 53 7 65 9 13 3 55
7 93 10 39 3 104 8 145 11 41 4 80 8 87 10 7 2 45 7 85 10 40 4 84 9 98 11 33
7 159 21 240 28 36 3 151 16 255 30 105 14 235 30 290 35 116 12 340 36 470
51 50 6 115 13 145 16 30 3 82 9 115 14 33 5 98 12 145 15 46 3 87 8 89 11 3
3 23 4 45 2 38 -3 43 -7 98 -88z m111 -204 c60 -87 69 -106 54 -111 -11 -3
-128 -16 -282 -30 -33 -3 -123 -12 -200 -21 -77 -8 -187 -19 -245 -24 -58 -6
-168 -17 -245 -26 -77 -9 -167 -18 -200 -20 -62 -4 -96 -7 -255 -24 -52 -6
-160 -17 -240 -25 -80 -8 -201 -21 -270 -29 -105 -13 -303 -34 -580 -62 -30
-2 -86 -9 -125 -14 -38 -5 -151 -17 -250 -25 -99 -8 -198 -17 -220 -20 -22 -3
-110 -11 -195 -19 -85 -8 -216 -22 -290 -31 -229 -27 -497 -54 -685 -70 -99
-9 -193 -17 -210 -20 -16 -2 -86 -8 -155 -14 -69 -6 -149 -13 -177 -16 -67 -7
-67 -1 -7 110 51 94 35 86 169 90 28 1 55 4 60 7 10 5 117 17 350 39 66 6 136
13 155 15 19 2 89 8 155 14 66 6 167 17 225 25 134 18 295 35 385 40 39 2 113
9 165 15 152 16 187 20 340 35 80 8 210 21 290 30 80 9 192 20 250 26 58 5
119 12 135 14 17 3 55 7 85 10 210 18 293 27 350 35 36 5 94 11 130 14 36 3
88 8 115 11 28 2 75 7 105 9 30 3 111 12 180 20 69 8 132 14 140 14 8 0 71 7
140 15 69 8 132 15 140 15 8 0 53 5 100 12 231 30 538 59 558 52 7 -3 32 -32
55 -66z m72 -164 c15 -10 75 -101 75 -112 0 -6 4 -10 9 -10 5 0 14 -13 19 -29
10 -28 9 -30 -16 -35 -31 -5 -121 -14 -232 -21 -41 -3 -122 -9 -180 -15 -58
-5 -161 -14 -230 -20 -69 -6 -186 -17 -260 -25 -74 -8 -166 -17 -205 -20 -120
-9 -299 -26 -330 -30 -16 -3 -66 -7 -110 -11 -86 -7 -107 -16 -98 -41 5 -13
20 -15 107 -8 56 4 108 7 116 7 8 0 69 6 135 14 66 7 174 18 240 24 66 6 194
20 285 31 91 10 194 21 230 24 36 2 177 16 313 31 245 27 248 27 267 8 23 -24
99 -157 94 -165 -2 -4 -39 -10 -81 -13 -43 -4 -166 -16 -273 -26 -107 -10
-235 -22 -285 -25 -49 -4 -137 -13 -195 -21 -58 -8 -139 -17 -180 -20 -41 -2
-118 -9 -170 -14 -52 -5 -126 -12 -165 -16 -38 -3 -72 -7 -75 -9 -3 -2 -57 -6
-120 -10 -63 -4 -126 -9 -140 -10 -14 -2 -38 -4 -53 -4 -28 -1 -47 -25 -31
-41 6 -6 46 -5 99 0 50 6 124 12 165 16 41 3 93 7 115 9 22 3 101 11 175 19
74 7 138 12 142 10 3 -2 17 0 30 5 20 7 95 16 233 26 22 1 60 5 85 9 103 13
130 16 230 26 58 5 128 12 155 14 28 3 100 10 160 16 61 6 125 13 143 16 20 4
38 1 49 -7 22 -19 113 -158 113 -174 0 -11 -99 -29 -235 -41 -22 -2 -62 -6
-90 -8 -27 -3 -86 -8 -130 -11 -44 -3 -129 -12 -190 -20 -60 -7 -155 -16 -210
-20 -55 -3 -144 -13 -198 -21 -53 -8 -136 -17 -185 -20 -48 -3 -125 -9 -172
-14 -91 -10 -166 -16 -300 -25 -154 -11 -170 -14 -170 -36 0 -20 4 -20 98 -14
53 3 117 8 142 10 25 2 99 9 165 15 123 11 314 29 560 55 77 8 165 17 195 20
30 4 111 12 180 20 69 7 128 11 132 9 4 -3 16 -1 25 4 10 5 63 13 118 17 152
10 178 13 227 20 42 6 47 5 59 -16 7 -13 34 -57 61 -97 26 -41 48 -77 48 -82
0 -4 -30 -11 -67 -14 -38 -4 -86 -9 -108 -11 -22 -2 -67 -7 -100 -10 -33 -3
-71 -8 -85 -10 -14 -3 -95 -10 -180 -15 -156 -10 -178 -12 -325 -30 -94 -12
-581 -59 -675 -66 -36 -2 -94 -7 -130 -10 -36 -3 -121 -9 -190 -12 l-125 -7
-3 -27 -3 -27 65 4 c36 2 69 6 74 9 4 2 64 8 132 11 138 8 136 8 270 24 52 6
122 13 155 15 133 10 315 26 390 35 44 6 116 13 160 16 44 3 152 15 240 25
175 21 403 42 479 44 l48 1 54 -93 c30 -52 54 -99 54 -107 0 -13 -41 -18 -215
-31 -95 -6 -276 -23 -317 -29 -27 -4 -38 -2 -38 7 0 10 -2 10 -8 1 -5 -8 -70
-18 -177 -28 -94 -8 -186 -17 -205 -20 -19 -3 -101 -10 -181 -15 -81 -6 -157
-13 -170 -15 -13 -3 -66 -7 -117 -10 -51 -2 -96 -6 -100 -9 -4 -2 -56 -7 -117
-10 -121 -8 -168 -11 -295 -22 -47 -4 -97 -7 -112 -8 -32 -1 -53 -19 -43 -37
8 -13 181 -7 340 11 85 10 278 27 385 35 138 10 186 15 206 19 23 5 185 18
249 21 23 0 45 4 50 7 9 5 72 10 275 23 25 2 90 8 145 14 55 6 131 13 169 15
38 3 92 7 120 10 169 18 151 20 184 -22 16 -20 42 -59 58 -87 15 -27 34 -56
41 -63 19 -20 16 -32 -9 -34 -13 -1 -30 -2 -38 -3 -8 -1 -60 -5 -115 -9 -55
-4 -109 -9 -121 -11 -11 -2 -72 -6 -135 -10 -63 -4 -124 -8 -136 -10 -12 -2
-73 -6 -135 -10 -62 -4 -140 -11 -173 -15 -110 -17 -279 -24 -271 -12 3 6 2
13 -3 16 -5 3 -11 -3 -14 -14 -4 -16 -14 -20 -54 -21 -26 -1 -59 -3 -73 -4
-14 -1 -63 -5 -110 -9 -47 -3 -101 -8 -120 -11 -80 -13 -90 -13 -90 -2 0 8 -4
7 -12 -1 -7 -7 -39 -12 -72 -12 -34 0 -99 -5 -146 -10 -61 -7 -86 -7 -89 1 -2
8 -6 7 -11 -1 -5 -9 -46 -14 -126 -17 -66 -2 -125 -6 -131 -8 -7 -2 -13 -18
-13 -36 l0 -31 60 7 c70 8 68 11 72 -120 l3 -80 -50 -5 c-30 -3 -50 -10 -51
-17 -1 -7 -2 -16 -2 -20 -1 -5 -26 -7 -55 -5 -29 2 -71 -3 -95 -11 -23 -8 -44
-12 -46 -8 -2 3 -7 56 -11 116 -3 61 -8 128 -10 150 -2 22 -6 99 -10 170 -3
72 -8 159 -10 195 -2 36 -7 124 -10 195 -3 72 -8 150 -10 175 -2 25 -7 124
-10 220 -10 307 -14 381 -20 391 -4 5 5 9 18 9 16 0 26 7 30 20 11 41 0 41
-383 -4 -69 -8 -156 -18 -195 -21 -38 -3 -124 -12 -190 -20 -66 -8 -205 -24
-310 -35 -351 -37 -480 -51 -514 -57 l-33 -6 6 -61 c8 -83 15 -264 21 -561 3
-137 7 -313 11 -390 3 -77 7 -201 10 -275 3 -74 7 -180 9 -235 4 -111 2 -115
-57 -115 -20 0 -40 -4 -43 -10 -11 -17 -23 -11 -27 13 -2 16 -9 21 -24 19 -29
-4 -31 7 -29 113 3 112 1 105 24 105 29 0 45 25 27 43 -12 11 -25 13 -58 7
-61 -12 -136 -15 -144 -7 -4 4 -12 3 -18 -2 -6 -5 -37 -12 -68 -15 -45 -6 -58
-4 -58 6 0 11 -2 11 -9 0 -9 -15 -99 -28 -246 -36 -55 -3 -113 -8 -130 -10
-102 -14 -195 -18 -195 -7 0 8 -7 7 -22 -3 -14 -8 -65 -16 -123 -20 -115 -8
-200 -14 -265 -21 -56 -6 -620 -54 -752 -63 -61 -5 -98 -4 -98 2 0 17 111 207
123 211 7 3 48 7 92 9 44 3 127 10 184 16 57 6 113 10 125 9 12 -1 37 1 56 4
19 4 58 9 85 11 164 15 299 28 360 36 43 6 74 5 79 0 6 -6 14 -6 21 0 6 5 69
12 140 15 72 3 182 13 245 21 151 19 170 18 170 -3 0 -15 2 -14 14 3 13 18 30
22 123 29 125 9 134 10 268 28 80 10 101 16 103 30 3 13 -4 17 -32 17 -34 0
-36 2 -37 33 l-2 32 -4 -30 c-6 -40 -17 -45 -93 -44 -36 0 -92 -4 -125 -10
-33 -6 -94 -13 -135 -15 -41 -3 -82 -7 -90 -10 -13 -4 -105 -12 -240 -21 -19
-1 -64 -5 -100 -9 -80 -8 -132 -13 -235 -21 -94 -7 -146 -12 -275 -25 -52 -5
-129 -12 -170 -15 -41 -3 -136 -12 -210 -20 -246 -26 -300 -29 -300 -16 0 7
-4 9 -10 6 -10 -6 71 159 92 187 10 14 34 19 116 23 57 3 107 7 111 10 5 2 48
7 97 11 49 3 95 7 104 9 8 1 84 8 169 16 119 10 156 10 159 1 2 -8 8 -8 19 3
8 8 33 15 56 16 23 0 53 2 67 3 14 2 58 6 98 10 41 3 77 8 81 10 4 3 65 7 135
10 70 4 137 8 149 11 39 9 233 25 362 30 50 2 104 7 121 10 37 6 43 -4 46 -68
1 -39 2 -38 7 13 6 52 8 55 36 60 24 4 31 11 33 33 3 24 0 27 -28 27 -17 0
-91 -9 -163 -20 -73 -10 -229 -26 -347 -35 -118 -9 -242 -20 -275 -25 -33 -5
-76 -9 -95 -9 -19 1 -89 -4 -155 -10 -66 -7 -190 -18 -275 -26 -85 -8 -182
-18 -215 -21 -33 -3 -94 -8 -135 -10 -42 -1 -82 -5 -90 -8 -23 -7 -180 -16
-180 -10 0 11 40 83 50 89 5 3 11 -2 11 -12 1 -10 5 4 9 30 11 65 33 95 72
101 18 3 121 12 228 21 313 24 333 26 375 30 22 2 123 11 225 20 102 8 217 19
255 24 39 5 77 9 85 9 70 2 162 11 167 16 4 3 29 6 57 6 80 0 411 42 422 53 4
3 4 13 0 22 -6 17 -3 17 -173 -5 -40 -6 -107 -14 -149 -20 -89 -11 -479 -46
-609 -55 -49 -3 -119 -10 -155 -15 -36 -5 -105 -12 -155 -15 -93 -5 -242 -19
-330 -30 -70 -9 -269 -22 -274 -18 -5 4 26 75 64 143 20 35 38 56 50 57 11 0
36 4 55 6 19 3 78 9 130 12 52 3 104 8 115 10 11 2 58 7 105 11 99 7 115 9
273 24 65 6 125 10 135 9 9 -1 33 1 52 4 19 3 76 8 125 11 50 3 149 12 220 20
72 8 182 20 245 26 246 22 296 34 269 66 -6 8 -23 9 -52 4 -48 -9 -480 -54
-672 -70 -123 -10 -180 -15 -420 -40 -153 -15 -551 -42 -574 -38 -20 3 -19 7
19 83 22 43 47 87 56 96 11 13 49 19 172 28 229 17 429 34 560 47 31 3 84 7
118 9 33 2 99 9 145 14 46 6 111 13 144 16 63 4 326 31 430 43 53 6 60 10 63
31 l4 24 -79 -7 c-43 -3 -85 -8 -93 -10 -48 -10 -91 -16 -135 -21 -27 -3 -108
-12 -180 -20 -71 -8 -164 -16 -205 -19 -41 -3 -136 -12 -210 -20 -74 -8 -223
-22 -330 -31 -107 -9 -238 -20 -290 -24 -52 -5 -99 -6 -103 -4 -4 3 1 19 12
36 10 18 33 60 50 93 29 58 33 62 74 68 65 9 259 27 437 41 41 3 143 12 225
20 83 8 182 18 221 20 40 3 80 7 90 9 54 10 105 17 154 20 30 3 93 9 140 15
47 6 112 13 145 16 111 10 379 36 470 45 50 6 160 17 245 25 85 8 187 19 225
25 39 5 102 12 140 15 84 7 505 51 628 65 48 6 140 15 205 20 64 5 178 16 252
24 74 9 182 20 240 26 58 5 143 15 190 20 47 6 135 15 195 20 61 5 180 16 265
24 85 9 187 18 225 22 39 3 72 8 74 10 7 7 86 4 96 -4z m-3239 -558 c3 -17 13
-264 19 -469 2 -66 4 -120 5 -120 3 0 9 -131 15 -320 6 -184 13 -395 18 -520
2 -38 -14 -57 -20 -25 -3 13 -13 369 -17 560 0 41 -4 80 -7 85 -3 6 -6 89 -8
185 -1 96 -4 191 -6 210 -10 83 -17 444 -9 437 4 -4 9 -15 10 -23z m1478 -369
c0 -17 -5 -31 -12 -31 -7 -1 -13 -3 -14 -4 -2 -1 -20 -4 -40 -5 -21 -1 -60 -5
-89 -9 -34 -5 -49 -4 -44 4 3 5 2 10 -4 10 -5 0 -12 8 -15 18 -3 10 -4 6 -3
-8 1 -15 -3 -24 -10 -22 -7 1 -13 -3 -13 -10 0 -6 -3 -8 -6 -5 -4 4 -1 13 6
22 7 9 10 18 6 22 -3 3 -6 0 -7 -8 0 -8 -4 -6 -10 6 l-9 20 1 -20 c2 -37 -1
-44 -15 -39 -8 3 -14 18 -14 34 1 16 5 27 10 24 4 -3 8 0 8 6 0 7 18 10 50 7
28 -2 50 1 50 5 0 4 11 8 25 8 14 0 25 -5 25 -11 0 -6 7 -3 16 5 10 11 30 15
62 13 44 -3 46 -4 46 -32z m-348 -13 c-3 -3 0 -12 7 -20 10 -13 9 -14 -2 -7
-11 6 -13 4 -9 -7 4 -8 1 -15 -7 -15 -7 0 -11 7 -8 14 3 8 0 13 -8 11 -8 -2
-13 3 -11 10 1 8 -2 11 -8 7 -5 -3 -10 -13 -10 -21 0 -8 5 -12 10 -9 6 3 10
-1 10 -9 0 -10 -9 -16 -22 -16 -13 1 -43 -2 -68 -6 -25 -4 -70 -8 -101 -10
l-56 -2 1 31 c1 38 21 45 150 50 72 3 95 1 111 -12 13 -10 16 -10 8 -1 -18 19
-16 31 2 23 9 -3 13 -8 11 -11z m-396 -44 c0 -11 -5 -16 -11 -13 -6 4 -5 -2 2
-13 7 -12 11 -24 8 -26 -4 -4 -266 -36 -296 -36 -2 0 -1 6 4 12 4 7 6 25 5 39
-3 26 -1 26 70 34 40 4 97 9 127 11 30 2 56 5 58 7 11 11 33 1 33 -15z m-343
-37 c1 -14 -4 -19 -18 -16 -10 2 -19 -1 -19 -7 0 -5 7 -8 15 -5 13 6 32 -9 23
-18 -5 -5 -108 -20 -205 -30 -54 -6 -63 -4 -63 9 0 9 0 19 -1 23 0 4 5 9 11
11 6 2 10 -2 8 -9 -3 -15 3 -19 28 -19 13 0 14 3 5 13 -6 8 -8 17 -4 20 3 4
-6 7 -22 7 -45 0 -24 10 36 16 30 4 81 10 114 14 33 4 67 8 75 8 9 1 16 -6 17
-17z m1106 -29 c4 -26 9 -97 13 -158 l7 -111 -83 -12 c-125 -19 -224 -29 -236
-24 -7 2 -14 52 -17 125 -10 177 -9 195 8 202 9 3 64 9 123 12 59 4 108 7 110
9 1 1 17 2 36 3 33 1 34 0 39 -46z m-339 -54 c3 -40 8 -114 10 -164 l6 -92
-43 -6 c-23 -3 -87 -8 -142 -11 -55 -4 -108 -9 -117 -11 -16 -5 -18 3 -19 58
0 35 -2 72 -4 83 -3 11 -6 58 -7 105 l-3 85 120 11 c66 6 136 12 157 12 l36 2
6 -72z m-406 -134 l2 -162 -117 -12 c-167 -18 -171 -34 -7 -26 l132 6 6 -31
c10 -52 7 -209 -4 -209 -7 0 -7 -7 1 -21 8 -15 8 -19 0 -15 -6 4 -11 2 -11 -3
0 -6 5 -11 11 -11 19 0 4 -23 -17 -26 -10 -1 -29 -5 -41 -7 -12 -3 -51 -8 -86
-11 -36 -3 -71 -8 -79 -9 -7 -2 -10 -2 -5 0 4 3 7 8 7 13 0 9 -19 8 -37 -3
-28 -17 -43 4 -43 62 0 31 -5 96 -10 146 -6 56 -6 93 0 99 6 6 6 14 0 21 -9
11 -28 334 -19 336 20 4 279 26 294 25 19 -1 20 -9 23 -162z m-345 129 c3 -5
8 -78 12 -164 l8 -155 -152 -13 c-84 -8 -153 -12 -155 -10 -9 9 -17 297 -9
302 5 3 65 13 133 22 69 9 127 18 129 21 7 7 29 5 34 -3z m1119 -344 c2 -50 1
-93 -1 -95 -3 -3 -11 6 -18 18 -9 18 -12 19 -13 6 0 -11 -6 -16 -20 -13 -14 3
-18 0 -13 -8 12 -19 12 -37 1 -37 -6 0 -8 -11 -6 -25 3 -14 1 -25 -3 -25 -5 0
-9 5 -9 11 0 5 -4 7 -10 4 -5 -3 -10 2 -11 12 0 14 -2 13 -10 -5 -5 -13 -13
-20 -19 -17 -6 4 -9 1 -8 -6 2 -7 -4 -13 -12 -14 -8 0 -17 -11 -20 -25 -6 -29
-42 -39 -68 -18 -11 9 -14 10 -8 1 4 -7 3 -13 -3 -13 -5 0 -12 6 -14 13 -3 7
-6 5 -6 -5 -1 -21 -20 -24 -26 -5 -2 6 -6 46 -10 87 -3 41 -7 84 -9 95 -3 11
-5 22 -5 24 -1 2 -8 -2 -17 -9 -12 -10 -15 -32 -14 -94 2 -103 2 -104 -10 -86
-8 13 -10 12 -11 -5 -1 -11 -1 -24 0 -29 1 -5 -5 -4 -14 4 -12 10 -13 16 -4
27 10 11 9 12 -5 7 -9 -3 -16 -14 -16 -23 0 -10 -6 -18 -12 -19 -7 0 -30 -3
-51 -5 -20 -3 -39 -1 -42 3 -3 5 -15 6 -28 3 -12 -2 -29 -6 -37 -8 -8 -1 -23
-6 -33 -10 -35 -15 -79 60 -47 80 10 6 9 36 -5 192 l-5 51 58 6 c31 4 103 9
160 12 98 6 102 5 102 -14 0 -12 5 -24 10 -27 6 -4 10 5 10 20 0 14 7 28 15
31 17 7 174 21 257 23 l57 1 3 -91z m-1103 -156 c-2 -105 -7 -152 -16 -161
-11 -11 -14 -11 -19 1 -6 17 -40 15 -36 -2 1 -6 -2 -11 -8 -11 -5 0 -10 5 -10
11 0 5 -5 7 -10 4 -6 -4 -7 -12 -3 -18 3 -7 -3 -4 -14 6 -18 16 -22 16 -36 3
-13 -14 -16 -14 -27 -1 -13 16 -35 21 -26 6 10 -15 -55 -6 -65 9 -7 11 -8 7
-3 -12 4 -18 2 -28 -5 -28 -6 0 -11 3 -12 8 0 4 -2 18 -4 32 -5 40 -8 261 -3
265 2 3 35 7 74 11 38 4 89 10 114 14 25 4 60 8 78 9 l33 1 -2 -147z m3593
130 c24 -29 98 -169 98 -187 0 -15 -23 -21 -59 -17 -7 2 -11 -1 -8 -6 7 -12
-164 -14 -179 -2 -9 7 -17 4 -28 -13 -9 -12 -16 -17 -16 -10 0 8 -5 10 -12 5
-21 -12 -50 -14 -62 -4 -7 6 -17 6 -26 1 -9 -6 -17 -5 -22 3 -6 9 -10 9 -17
-2 -11 -16 -129 -25 -147 -10 -8 6 -13 5 -17 -4 -3 -8 -20 -13 -43 -12 -22 0
-49 -3 -61 -7 -14 -4 -23 -3 -26 5 -3 9 -8 8 -21 -3 -12 -9 -45 -15 -96 -16
-43 -1 -83 -4 -89 -8 -15 -10 -121 -5 -127 6 -8 12 -24 10 -24 -4 0 -14 -122
-19 -136 -6 -4 4 -13 3 -20 -3 -20 -16 -130 -24 -139 -10 -5 9 -10 8 -18 -3
-8 -10 -34 -18 -71 -21 -48 -4 -62 -2 -73 13 -8 9 -12 11 -8 4 3 -6 0 -14 -7
-17 -25 -9 -139 -11 -144 -3 -3 5 -11 4 -18 -1 -7 -6 -32 -13 -56 -16 -24 -3
-46 -8 -51 -10 -4 -3 -10 -1 -14 4 -4 7 -15 7 -32 0 -29 -11 -94 -13 -133 -5
-13 3 -27 2 -30 -3 -7 -12 -88 -16 -117 -6 -19 6 -23 15 -24 49 0 22 -2 48 -4
56 -13 61 -16 98 -7 104 6 3 46 8 89 11 43 3 106 7 141 11 61 6 68 3 63 -29
-1 -5 3 -6 8 -2 6 3 8 12 5 20 -6 16 23 23 121 29 33 3 83 8 111 11 46 7 53 5
69 -16 10 -15 15 -17 12 -7 -9 25 0 27 115 38 357 32 339 33 352 -10 l10 -35
4 38 c3 40 1 39 87 41 44 1 50 -1 56 -24 l7 -25 1 27 c1 32 11 35 119 43 40 2
96 7 124 11 37 5 52 3 58 -6 6 -10 12 -11 22 -3 7 6 42 13 77 15 l64 3 11 -35
10 -35 4 37 c4 43 -2 41 167 56 155 14 161 14 177 -5z m-4203 -453 c-1 -106
-1 -110 -22 -109 -12 0 -41 -4 -64 -9 -29 -6 -44 -6 -47 2 -3 8 -7 7 -13 -1
-5 -7 -34 -15 -66 -19 -48 -6 -58 -4 -63 10 -6 15 -8 15 -23 2 -9 -8 -25 -15
-36 -15 -11 0 -31 -2 -45 -4 -14 -2 -32 3 -42 11 -14 12 -17 11 -22 -6 -5 -13
-13 -18 -26 -15 -10 3 -26 1 -35 -5 -9 -5 -34 -6 -56 -2 -21 4 -36 4 -34 0 14
-23 -81 -27 -112 -5 -20 14 -23 14 -31 -1 -7 -13 -21 -16 -75 -12 -37 2 -68 0
-69 -4 -2 -4 -34 -8 -73 -10 -38 -1 -74 -5 -80 -9 -5 -3 -24 -7 -40 -7 -17 0
-35 -2 -40 -3 -6 -2 -21 1 -34 5 -15 5 -26 4 -31 -4 -5 -8 -26 -12 -56 -10
-27 1 -60 1 -74 0 -14 -1 -53 -3 -87 -4 -35 0 -63 -4 -63 -8 0 -3 -24 -8 -52
-10 -37 -3 -58 0 -70 10 -16 13 -18 13 -18 -1 0 -9 -8 -18 -17 -21 -30 -9 -98
-10 -111 -2 -7 4 -19 3 -27 -4 -8 -7 -42 -11 -82 -10 -37 1 -89 -1 -115 -4
-30 -5 -49 -3 -53 4 -5 8 -11 7 -22 -2 -10 -8 -48 -13 -105 -14 -103 -1 -100
-11 -36 127 l40 87 51 5 c36 4 55 2 61 -7 7 -10 13 -9 28 6 25 25 117 26 119
1 1 -16 2 -16 6 -1 3 12 20 19 58 23 30 4 62 5 71 1 8 -3 23 -2 32 3 15 8 101
17 237 26 22 1 65 6 96 10 40 5 59 4 64 -5 5 -8 10 -9 14 -2 4 6 34 14 69 17
60 5 62 5 63 -17 0 -23 0 -23 9 -2 13 33 130 48 130 17 0 -9 3 -13 8 -9 4 4 7
13 7 19 0 14 106 28 119 16 5 -4 8 -45 8 -90 -2 -122 13 -87 17 41 1 19 5 40
9 47 7 11 83 22 217 30 39 2 98 7 133 11 l62 8 0 -75 c0 -84 9 -91 14 -10 2
30 4 62 5 72 1 14 11 17 61 17 59 0 59 0 65 -32 3 -18 6 -60 8 -93 3 -54 3
-52 5 18 3 107 9 117 80 118 31 0 77 4 102 8 25 5 57 9 72 10 l27 1 0 -110z"/>
<path d="M6325 3780 c-3 -5 -17 -10 -31 -10 -14 0 -27 -7 -30 -14 -10 -25 -93
-45 -259 -61 -146 -14 -365 -39 -440 -50 -16 -2 -79 -9 -140 -15 -60 -6 -119
-13 -130 -16 -11 -2 -96 -13 -190 -24 -93 -11 -262 -31 -375 -44 -113 -13
-259 -29 -325 -36 -247 -23 -593 -62 -685 -76 -89 -14 -180 -14 -302 2 l-38 5
6 -33 c7 -36 21 -62 53 -96 17 -17 26 -20 41 -12 10 5 22 10 25 10 16 0 -9
-57 -53 -124 -26 -39 -51 -79 -57 -89 -5 -9 -26 -40 -46 -69 -48 -72 -116
-178 -175 -271 -60 -94 -186 -292 -287 -447 -41 -63 -95 -151 -122 -195 -26
-44 -73 -120 -106 -170 -32 -49 -63 -99 -68 -110 -5 -11 -20 -33 -34 -49 -38
-44 -324 -488 -334 -519 -3 -9 -9 -17 -14 -17 -5 0 -9 -5 -9 -11 0 -12 -94
-166 -145 -236 -16 -23 -42 -62 -56 -85 -14 -24 -53 -86 -86 -138 -33 -52 -84
-135 -114 -184 -51 -84 -57 -90 -117 -118 -70 -32 -70 -37 -10 -80 27 -19 30
-19 47 -4 10 9 23 16 29 16 7 0 12 6 12 13 1 6 9 21 18 33 22 26 60 32 302 49
154 10 190 16 190 32 0 10 -9 13 -32 9 -132 -21 -187 -27 -288 -35 -63 -4
-117 -6 -118 -5 -6 4 60 96 88 124 14 14 25 27 25 30 0 3 9 18 20 33 22 30 23
30 250 57 50 6 126 15 170 20 44 5 166 19 270 30 105 11 235 24 290 30 55 6
129 15 165 20 36 5 93 12 127 15 40 5 63 12 67 21 10 26 -25 28 -169 11 -134
-16 -540 -62 -635 -72 -25 -3 -112 -14 -195 -24 -82 -11 -177 -22 -210 -26
-33 -3 -68 -8 -78 -11 -35 -11 -30 25 9 69 22 24 56 65 78 91 45 55 58 61 151
70 87 8 213 22 375 42 221 27 274 33 325 38 54 6 227 25 315 35 41 4 56 10 58
23 2 11 -3 18 -13 18 -30 0 -509 -53 -760 -85 -475 -59 -430 -61 -366 18 71
85 122 137 146 147 12 4 52 11 90 15 80 7 277 31 380 45 39 5 115 14 170 20
55 6 114 12 130 14 17 2 77 10 135 17 106 12 132 21 115 38 -9 8 -123 0 -192
-13 -11 -3 -74 -10 -140 -16 -65 -6 -125 -13 -133 -15 -8 -2 -100 -13 -205
-25 -104 -11 -219 -24 -255 -30 -100 -16 -131 -18 -128 -10 10 29 164 199 183
204 32 8 516 64 700 81 109 10 201 29 195 40 -7 13 -93 10 -260 -9 -491 -57
-645 -73 -659 -68 -11 4 58 100 116 163 35 37 47 40 288 64 22 3 81 9 130 14
50 6 160 18 245 27 149 16 191 27 172 46 -8 8 -192 -8 -307 -27 -16 -3 -75
-10 -130 -15 -117 -11 -272 -28 -332 -36 -24 -3 -43 -2 -43 2 0 9 67 96 117
152 33 36 45 43 88 47 28 3 145 14 260 25 304 29 317 30 348 36 27 6 35 18 18
28 -5 3 -116 -5 -248 -19 -131 -14 -265 -28 -298 -31 -33 -3 -75 -7 -93 -8
-38 -4 -48 7 -30 33 18 26 121 136 136 145 16 10 179 32 395 55 92 10 170 21
174 25 4 3 2 11 -4 17 -7 7 -51 5 -139 -6 -190 -23 -427 -45 -432 -40 -3 3 7
19 22 37 14 18 44 56 66 85 22 28 48 54 57 57 29 8 75 15 128 21 178 18 390
42 700 80 214 26 466 55 530 61 33 3 67 7 76 10 14 4 100 14 379 44 84 9 313
35 400 46 157 18 202 24 265 29 39 4 81 8 95 10 14 1 70 8 125 14 144 16 246
28 448 52 97 11 182 17 188 13 7 -4 9 2 7 17 -2 17 -9 23 -23 22 -36 -3 -306
-33 -580 -64 -148 -17 -328 -37 -400 -44 -197 -20 -402 -43 -590 -66 -93 -11
-192 -23 -220 -25 -27 -3 -81 -10 -120 -15 -68 -10 -139 -19 -605 -74 -118
-14 -226 -27 -240 -30 -14 -2 -54 -7 -90 -10 -36 -3 -76 -7 -90 -10 -14 -2
-47 -7 -75 -10 -27 -3 -84 -10 -125 -15 -116 -14 -190 -18 -190 -8 0 15 124
167 140 172 8 3 58 10 110 16 52 6 109 13 125 15 17 2 57 7 90 10 33 4 148 18
255 31 188 24 312 39 690 83 96 12 207 25 245 31 85 12 128 16 270 30 61 6
121 12 135 15 27 5 116 14 195 20 28 2 97 10 155 18 58 9 157 21 220 27 63 6
149 16 190 22 41 5 107 13 145 18 88 10 236 29 295 38 30 5 45 12 45 22 0 10
-9 14 -25 13 -43 -3 -300 -33 -410 -47 -208 -28 -347 -45 -455 -56 -60 -6
-159 -17 -220 -25 -130 -17 -328 -40 -515 -60 -74 -8 -166 -19 -205 -25 -38
-5 -90 -12 -115 -15 -25 -2 -101 -11 -170 -20 -69 -8 -190 -22 -270 -30 -80
-9 -190 -22 -245 -30 -55 -8 -138 -19 -185 -25 -47 -5 -143 -16 -213 -25 -71
-8 -133 -13 -138 -10 -11 8 65 108 118 156 39 35 42 36 164 48 113 11 227 24
429 51 122 16 148 19 305 35 83 8 206 22 275 30 69 8 150 18 180 21 30 3 123
14 205 24 83 11 197 24 255 30 99 10 196 22 455 55 61 8 128 17 150 19 66 7
213 26 325 41 58 8 133 17 167 21 106 10 100 8 91 35 -2 6 -57 3 -158 -11 -85
-11 -177 -23 -205 -26 -27 -3 -86 -10 -130 -15 -44 -5 -154 -19 -245 -29 -91
-11 -190 -24 -220 -29 -30 -6 -111 -15 -180 -21 -69 -6 -132 -13 -141 -16 -10
-3 -93 -13 -185 -24 -168 -19 -273 -32 -599 -70 -93 -11 -188 -22 -210 -25
-22 -2 -116 -13 -210 -25 -335 -41 -490 -56 -493 -48 -4 8 48 78 102 139 l36
39 163 20 c89 10 195 24 236 30 41 6 214 26 385 45 171 20 327 38 346 40 85
11 280 34 335 40 33 3 67 8 75 10 8 3 62 9 120 15 58 6 121 12 140 15 19 3 91
12 160 20 69 8 136 17 150 19 14 2 57 7 95 10 86 8 287 32 418 52 54 8 115 14
137 14 40 0 63 16 36 26 -8 3 -120 -6 -248 -21 -128 -15 -294 -33 -368 -41
-74 -7 -151 -16 -170 -20 -19 -3 -89 -12 -155 -19 -174 -18 -540 -63 -610 -74
-33 -6 -89 -13 -125 -16 -36 -4 -155 -18 -265 -31 -110 -13 -274 -33 -365 -44
-91 -11 -236 -29 -324 -40 -87 -11 -162 -17 -167 -14 -12 7 36 77 97 140 l49
51 170 17 c94 9 242 26 330 36 88 10 198 21 245 25 47 3 94 8 105 11 11 2 43
6 71 8 70 7 295 36 314 41 8 2 72 9 141 15 69 6 136 13 150 16 13 2 49 7 79 9
30 2 86 9 125 15 38 5 99 13 135 16 36 3 79 7 95 9 17 3 91 11 165 19 74 8
207 24 295 36 88 11 170 21 183 22 25 3 29 20 8 40 -11 12 -11 19 -1 38 l12
23 24 -27 c34 -40 67 -51 90 -30 17 15 21 15 42 1 18 -12 30 -37 46 -95 11
-43 21 -89 21 -102 0 -21 208 -408 333 -620 27 -47 81 -145 120 -219 l70 -133
44 5 c54 6 61 12 41 34 -14 17 -36 56 -146 263 -25 47 -78 143 -119 213 -40
71 -73 130 -73 132 0 2 -13 26 -28 52 -16 26 -56 100 -89 163 -33 63 -88 166
-122 228 -33 62 -61 117 -61 121 0 4 -11 22 -25 41 -14 19 -25 44 -25 57 0 23
-23 32 -35 13z"/>
<path d="M6295 2585 c-60 -7 -207 -22 -325 -34 -118 -12 -228 -23 -245 -26
-16 -2 -154 -18 -305 -35 -385 -44 -383 -43 -388 -59 -5 -16 89 -12 308 14
229 27 498 56 703 75 335 31 387 40 387 61 0 11 -6 18 -12 18 -7 -1 -62 -7
-123 -14z"/>
<path d="M6360 2374 c-58 -7 -141 -15 -185 -19 -44 -3 -89 -8 -100 -11 -11 -2
-87 -11 -170 -19 -82 -8 -183 -19 -223 -25 -40 -5 -163 -19 -272 -30 -110 -11
-210 -25 -222 -30 -13 -5 -18 -9 -12 -9 7 -1 14 -9 16 -19 6 -21 -15 -56 -26
-45 -4 4 -4 0 0 -10 4 -12 1 -17 -12 -18 -12 0 -14 -3 -6 -6 7 -3 23 3 34 13
12 11 19 15 16 9 -3 -5 -2 -19 3 -30 6 -16 7 -14 6 10 -1 17 -4 32 -8 35 -4 3
-2 13 5 22 13 18 30 21 181 37 55 6 141 16 190 21 143 16 365 39 425 45 30 3
105 12 165 20 61 8 130 17 155 19 25 3 71 8 103 11 38 4 57 11 57 20 0 21 -8
22 -120 9z"/>
<path d="M4735 2350 c-38 -4 -95 -10 -125 -13 -30 -4 -86 -9 -125 -12 -78 -7
-450 -45 -740 -75 -104 -12 -193 -24 -197 -28 -3 -4 -9 -34 -12 -67 -7 -72
-23 -204 -35 -300 -5 -38 -12 -99 -16 -135 -7 -76 -25 -224 -31 -260 -3 -14
-9 -63 -14 -110 -5 -47 -11 -112 -15 -145 -3 -33 -10 -80 -15 -105 -5 -25 -12
-76 -14 -115 -5 -61 -19 -164 -32 -232 -3 -16 -14 -23 -45 -28 -36 -6 -40 -10
-35 -30 5 -21 1 -24 -57 -34 -34 -5 -102 -13 -152 -16 -49 -3 -130 -12 -180
-20 -49 -8 -142 -19 -205 -26 -63 -6 -137 -15 -165 -19 -92 -16 127 -2 315 20
263 31 468 50 530 48 89 -1 374 23 386 33 7 5 15 44 19 86 7 81 14 125 19 131
2 1 43 4 92 6 49 2 101 9 117 16 17 8 31 10 36 4 5 -5 3 -55 -3 -112 -10 -87
-7 -126 9 -111 5 6 14 68 21 147 8 85 10 87 108 92 135 8 171 6 170 -10 -1 -9
-4 -57 -8 -108 l-7 -91 25 -7 c44 -11 54 8 61 114 8 111 13 125 46 127 13 1
73 6 132 10 l108 8 -5 -44 c-16 -145 -17 -194 -4 -181 8 8 17 57 23 120 10
106 10 107 38 110 35 4 36 22 1 22 l-27 0 7 112 c3 62 9 132 12 156 6 39 9 42
36 42 17 0 27 4 23 10 -3 6 -17 10 -30 10 -21 0 -24 4 -21 33 2 17 9 84 15
147 7 63 13 116 15 118 4 3 30 9 49 11 20 2 -7 21 -29 21 -22 0 -24 3 -18 28
8 30 20 42 47 42 14 0 17 10 18 58 1 68 8 141 15 162 3 8 8 44 11 80 17 220
22 263 37 279 30 33 19 41 -46 40 -35 -1 -94 -5 -133 -9z m-1150 -230 c-2 -3
-6 -36 -10 -75 -4 -38 -11 -104 -16 -145 -5 -41 -11 -97 -14 -125 -2 -27 -9
-79 -14 -115 -9 -56 -38 -281 -46 -360 -1 -14 -6 -54 -10 -90 -4 -36 -9 -79
-10 -97 -2 -17 -6 -36 -10 -43 -4 -6 -9 -43 -11 -83 -2 -39 -8 -104 -14 -145
-5 -40 -10 -75 -10 -78 0 -2 -4 -4 -9 -4 -6 0 -8 10 -5 22 2 13 7 57 10 98 2
41 7 86 11 100 7 30 12 68 17 135 2 28 9 93 15 145 6 52 13 118 15 145 2 28 7
61 10 75 3 14 8 59 11 100 7 87 9 105 30 260 15 113 19 140 30 248 6 63 15 84
25 56 4 -10 6 -21 5 -24z m1173 -422 c-3 -37 -8 -38 -180 -53 l-88 -7 0 30 c0
36 10 39 137 48 48 4 90 8 92 10 2 2 13 4 23 4 16 0 19 -6 16 -32z m-347 -10
c3 -5 4 -20 2 -33 -6 -27 -22 -31 -166 -41 l-98 -7 3 34 3 34 110 10 c142 14
139 13 146 3z m334 -168 c-9 -145 -16 -183 -35 -185 -8 -1 -44 -5 -80 -9 -36
-4 -86 -9 -111 -12 -29 -4 -49 -2 -53 5 -7 10 9 227 19 277 3 15 13 21 42 23
21 1 67 6 103 10 36 5 78 9 93 10 l29 1 -7 -120z m-339 38 c-8 -62 -20 -210
-18 -230 0 -10 -3 -20 -7 -22 -15 -9 -259 -18 -263 -10 -8 15 23 278 33 285 5
3 38 7 72 8 34 1 64 4 66 7 2 2 31 4 63 4 l60 0 -6 -42z m317 -255 c5 -10 -12
-216 -21 -262 -9 -39 -4 -38 -147 -47 -55 -3 -103 -8 -107 -10 -4 -2 -9 0 -13
5 -8 13 16 284 26 295 4 5 45 11 91 13 46 3 85 7 87 9 8 7 80 4 84 -3z m-343
-41 c0 -10 -5 -55 -10 -101 -6 -46 -12 -102 -14 -125 -1 -24 -6 -48 -10 -54
-4 -7 -32 -12 -64 -13 -31 0 -88 -3 -126 -8 -47 -5 -69 -4 -72 4 -4 10 23 286
29 291 3 2 191 21 235 23 25 1 32 -3 32 -17z m-460 -43 c0 -5 -4 -7 -10 -4 -5
3 -10 2 -10 -3 0 -5 8 -12 19 -15 20 -5 34 -54 18 -64 -5 -3 -7 -1 -3 5 3 6 2
13 -3 16 -5 4 -8 -2 -7 -11 2 -10 0 -27 -5 -39 -5 -16 -1 -28 17 -47 14 -15
20 -27 14 -27 -5 0 -10 -7 -10 -15 0 -8 5 -15 12 -15 6 0 8 -3 5 -7 -4 -3 -2
-12 4 -19 11 -14 -6 -19 -110 -30 -58 -6 -63 -5 -58 12 3 11 11 70 18 133 8
68 18 119 27 127 16 16 82 19 82 3z"/>
<path d="M6490 2170 c-8 -5 -35 -10 -60 -10 -25 0 -72 -4 -105 -9 -33 -5 -101
-12 -152 -15 -78 -5 -265 -23 -418 -41 -46 -5 -433 -45 -439 -45 -2 0 -6 14
-10 32 -8 38 -34 81 -45 74 -5 -3 -6 -24 -4 -47 3 -23 0 -51 -5 -63 -6 -11
-13 -37 -17 -56 -3 -19 -7 -44 -9 -55 -3 -11 -5 -26 -5 -33 -1 -7 -5 -11 -9
-8 -4 2 -9 -5 -9 -16 -1 -12 -8 -25 -14 -29 -7 -4 -14 -27 -15 -51 -3 -59 -14
-89 -28 -81 -6 4 -6 1 2 -9 10 -12 10 -17 -1 -26 -8 -7 -12 -24 -9 -40 3 -21
0 -29 -12 -29 -11 0 -13 4 -5 13 7 8 7 14 -1 19 -12 7 -11 10 -15 -43 -3 -49
-20 -76 -31 -49 -8 21 4 39 19 31 7 -4 8 -3 4 2 -5 5 -12 9 -15 9 -4 0 -13 4
-20 9 -10 6 -10 11 -1 22 6 8 9 25 7 39 -6 31 0 32 12 3 8 -22 9 -22 7 3 -1
18 -6 26 -17 24 -8 -1 -14 -8 -13 -14 2 -6 -2 -11 -7 -11 -6 0 -10 -5 -10 -11
0 -5 5 -7 10 -4 6 3 10 -1 10 -10 0 -9 -4 -14 -9 -11 -4 3 -8 -4 -7 -17 0 -12
-4 -21 -10 -20 -6 1 -11 -6 -10 -15 0 -9 -3 -17 -9 -17 -5 0 -9 4 -7 8 1 5 -2
6 -8 2 -5 -3 -10 2 -10 11 0 10 -3 15 -6 11 -4 -3 -3 -14 1 -24 5 -10 9 -21 9
-25 1 -4 7 -13 15 -20 8 -7 11 -8 8 -2 -7 12 11 31 28 29 21 -1 36 -17 27 -28
-16 -22 11 -93 30 -81 10 6 10 4 2 -7 -6 -8 -14 -27 -18 -43 -4 -15 -10 -26
-13 -23 -3 3 -1 19 5 35 7 21 7 29 -2 29 -11 0 -17 -23 -19 -72 -1 -11 -9 -26
-20 -34 -18 -13 -18 -14 5 -39 16 -19 17 -22 4 -12 -18 13 -19 13 -14 -2 4 -9
4 -19 0 -22 -3 -4 -7 -16 -9 -28 -5 -29 -51 -67 -75 -60 -11 3 -17 10 -14 18
3 8 1 14 -4 14 -13 0 -13 -127 0 -135 6 -3 10 -1 10 4 0 6 5 11 11 11 5 0 8
-4 4 -9 -3 -5 -1 -12 5 -16 6 -4 7 -11 4 -17 -4 -5 -8 -29 -9 -52 -1 -22 -4
-42 -5 -43 -1 -2 -4 -16 -5 -33 -1 -16 -3 -34 -4 -39 0 -5 -25 -8 -53 -7 -64
1 -108 -10 -108 -27 0 -6 12 -24 25 -40 22 -25 30 -27 94 -27 52 0 72 4 78 15
9 15 257 42 733 80 102 8 203 17 225 19 22 3 81 8 130 11 50 4 135 10 190 15
331 29 453 41 476 46 19 3 40 -5 80 -33 36 -25 65 -38 88 -38 27 0 38 -6 50
-27 65 -109 104 -169 135 -203 35 -39 35 -40 36 -14 0 23 -9 53 -39 124 -22
52 -38 123 -34 152 4 24 -4 48 -32 99 -20 36 -47 76 -59 88 -26 26 -29 79 -4
73 36 -10 31 32 -13 109 -23 40 -46 74 -50 74 -4 0 -6 8 -5 18 4 21 -13 72
-24 72 -4 0 -10 9 -13 20 -3 11 -2 20 3 20 4 0 10 -10 14 -22 5 -22 6 -22 22
-6 16 16 16 19 -1 57 -10 22 -26 48 -36 57 -11 10 -19 24 -19 33 0 13 -2 14
-9 2 -7 -11 -10 -10 -14 5 -2 10 -4 5 -3 -13 0 -17 4 -29 9 -26 4 2 7 -2 7 -9
0 -10 3 -9 11 2 8 12 9 11 6 -5 -2 -11 -9 -19 -16 -17 -10 2 -12 -4 -7 -20 3
-13 11 -44 17 -71 6 -26 14 -45 18 -43 4 3 5 -8 3 -25 -2 -16 0 -29 6 -29 5 0
10 -11 10 -24 0 -14 6 -32 15 -40 12 -13 13 -22 5 -44 -9 -22 -6 -39 15 -91
14 -36 23 -69 20 -74 -3 -5 0 -13 6 -17 7 -4 14 -13 15 -21 2 -8 6 -22 11 -31
9 -23 0 -48 -18 -48 -7 0 -44 11 -82 23 l-70 24 -20 99 c-11 54 -23 104 -26
109 -4 6 -10 30 -14 55 -4 25 -16 81 -27 125 -11 44 -24 103 -30 130 -13 67
-22 73 -14 8 6 -50 6 -51 -21 -57 -16 -3 -59 -8 -98 -11 -38 -3 -77 -7 -85 -9
-20 -6 -98 -14 -260 -26 -159 -12 -252 -20 -277 -25 -10 -1 -56 -6 -103 -9
-47 -4 -107 -9 -135 -11 -274 -24 -347 -27 -358 -15 -9 10 -8 12 5 7 9 -3 18
-1 20 4 2 6 12 11 23 13 10 1 21 9 23 16 3 7 0 10 -6 6 -6 -4 -6 3 1 18 8 17
14 21 20 13 6 -8 7 -4 4 10 -3 13 1 28 10 34 8 8 12 21 9 35 -5 18 -1 23 22
28 39 7 117 16 192 21 115 8 205 17 211 21 3 2 66 8 140 15 74 6 148 13 164
15 17 2 62 5 100 8 39 3 135 12 215 21 80 8 148 15 153 15 10 0 9 37 -1 44 -4
2 -59 -1 -122 -9 -63 -7 -146 -16 -185 -20 -38 -3 -79 -8 -90 -10 -11 -3 -72
-9 -135 -15 -63 -5 -124 -12 -135 -14 -11 -2 -56 -7 -100 -10 -44 -4 -114 -11
-155 -16 -41 -5 -122 -12 -180 -15 -99 -6 -107 -5 -125 15 -14 16 -19 37 -20
87 -1 38 3 66 9 68 16 5 103 14 193 20 43 3 110 10 148 15 39 5 144 17 235 25
91 8 226 22 300 30 74 8 153 17 175 19 117 12 145 19 145 36 0 25 -6 28 -58
20 -66 -11 -141 -20 -252 -30 -52 -5 -126 -14 -164 -20 -37 -6 -145 -17 -240
-25 -94 -9 -209 -20 -256 -25 -47 -5 -124 -10 -171 -10 -99 0 -110 7 -115 73
-2 23 -6 52 -10 64 -9 33 22 41 230 58 100 9 192 17 206 20 24 5 51 7 255 20
50 3 142 12 205 20 63 8 161 20 218 26 98 11 102 12 102 35 0 25 -15 30 -40
14z m191 -758 c0 -15 8 -57 18 -94 l17 -68 -30 -4 c-125 -19 -196 -27 -296
-37 -152 -15 -164 -16 -385 -34 -104 -8 -201 -17 -215 -20 -14 -2 -92 -9 -175
-15 -82 -6 -170 -12 -195 -14 -140 -13 -253 -15 -222 -6 17 6 32 16 32 23 0 7
14 26 32 43 17 16 28 23 24 17 -4 -7 -5 -13 -2 -13 11 0 32 55 29 75 -1 11 0
14 3 6 5 -9 11 -5 19 16 12 29 17 30 101 41 163 21 669 66 1038 92 77 6 141
12 143 14 2 2 17 3 33 4 26 1 30 -3 31 -26z m47 -272 c2 -24 7 -47 11 -50 12
-8 28 -63 24 -82 -4 -18 -33 -34 -33 -18 0 15 -20 12 -37 -6 -11 -10 -34 -15
-72 -15 -31 1 -77 -2 -104 -5 -30 -4 -53 -2 -61 5 -11 9 -15 9 -18 -1 -3 -8
-38 -15 -99 -21 -52 -4 -116 -10 -144 -14 -27 -3 -77 -7 -110 -9 -98 -5 -245
-18 -498 -42 -43 -5 -81 -4 -84 0 -2 5 -10 5 -16 0 -18 -14 -106 -21 -113 -10
-4 6 -9 6 -14 -1 -6 -11 -248 -37 -257 -27 -6 6 39 110 49 114 5 2 5 8 2 14
-3 5 8 21 25 35 17 14 28 30 24 36 -3 5 -1 7 5 3 6 -3 13 -2 17 4 3 5 16 10
28 10 37 0 200 17 232 23 17 4 93 11 170 17 77 6 165 13 195 16 48 4 449 37
595 49 28 2 87 6 133 8 46 3 86 8 90 12 3 3 18 5 32 3 22 -3 25 -8 28 -48z"/>
<path d="M16177 1459 c-4 -13 -10 -18 -18 -13 -8 4 -10 3 -5 -5 4 -7 5 -19 2
-28 -5 -12 -9 -13 -20 -4 -15 13 -30 -1 -31 -28 0 -8 -8 -15 -18 -17 -20 -3
-43 31 -27 41 12 7 4 25 -11 25 -11 0 -12 -47 -1 -54 4 -2 9 -23 10 -46 2 -22
7 -51 12 -63 7 -16 8 -7 5 33 l-4 55 11 -55 c7 -33 13 -47 16 -34 2 16 8 20
22 17 11 -3 18 -9 15 -13 -3 -5 0 -12 6 -16 7 -4 9 -3 5 4 -3 6 -2 13 4 17 5
3 10 -2 11 -12 0 -10 3 -13 5 -7 3 6 -3 24 -12 40 -12 23 -15 24 -11 6 6 -27
-8 -20 -16 8 -3 11 -2 18 1 16 4 -2 8 10 9 27 1 16 12 40 23 52 11 12 17 26
13 31 -5 5 1 1 12 -8 11 -9 24 -17 28 -16 5 0 11 -2 13 -4 2 -3 -11 -4 -29 -4
-21 1 -31 -3 -29 -12 1 -8 -2 -11 -8 -7 -11 7 -13 -25 -2 -40 16 -22 31 -14
27 14 -3 24 0 29 15 26 10 -2 27 6 37 17 10 12 12 18 6 14 -9 -5 -20 5 -34 28
-12 20 -22 36 -24 36 -1 0 -5 -9 -8 -21z"/>
<path d="M16338 1373 c-5 -7 -15 -10 -22 -6 -6 3 -8 3 -4 -2 4 -4 3 -13 -2
-20 -7 -8 -5 -12 5 -12 8 0 12 4 9 8 -2 4 0 10 5 13 5 4 8 -2 7 -11 -3 -18
-22 -24 -41 -14 -5 3 -18 6 -27 6 -9 0 -28 11 -42 24 -26 24 -28 23 -30 -13
-1 -24 -33 -29 -46 -8 -19 34 -9 4 15 -44 14 -27 25 -41 25 -31 0 10 5 15 10
12 6 -3 10 4 10 16 0 30 9 19 12 -13 1 -14 7 -25 13 -24 19 3 35 17 30 26 -3
5 -1 11 5 15 6 4 7 11 4 17 -4 6 -10 5 -15 -3 -7 -11 -9 -11 -9 -1 0 7 -4 11
-9 7 -5 -3 -12 -1 -16 5 -4 6 -12 7 -18 3 -7 -4 -6 0 2 10 15 19 26 23 15 5
-5 -7 -3 -8 6 -3 8 5 11 4 7 -2 -4 -7 4 -10 22 -8 23 2 28 -1 27 -20 -1 -13
-8 -30 -15 -39 -11 -13 -11 -16 1 -16 24 0 50 34 37 47 -9 9 -7 11 7 9 11 -2
20 -8 20 -14 1 -7 3 -14 4 -17 1 -3 3 -9 4 -15 0 -5 4 -10 9 -10 4 0 12 0 17
0 6 0 10 5 10 11 0 5 -5 7 -10 4 -13 -8 -30 37 -20 50 15 18 15 22 0 41 -8 10
-10 16 -6 12 5 -4 14 -4 21 2 8 6 11 2 11 -15 0 -14 -4 -21 -10 -18 -6 4 -7 2
-3 -2 24 -27 61 1 38 29 -6 7 -9 15 -6 17 2 3 -7 5 -21 5 -14 0 -30 -6 -36
-13z"/>
<path d="M16499 1297 c-5 -26 -4 -34 9 -49 8 -10 12 -19 9 -19 -29 -6 -54 -4
-66 5 -11 8 -13 8 -7 -1 5 -9 -1 -13 -21 -14 -15 0 -22 -3 -15 -6 22 -9 13
-23 -15 -23 -14 0 -23 -3 -19 -7 4 -5 54 -8 111 -9 79 0 102 3 94 12 -6 7 -5
15 5 23 9 8 16 8 20 2 4 -7 15 -7 30 -1 13 5 27 6 30 3 3 -4 6 -1 6 5 0 7 10
12 23 13 21 0 21 1 -3 11 -14 6 -28 12 -32 13 -5 2 -10 4 -13 5 -3 1 -17 3
-32 4 -16 1 -33 5 -40 9 -6 4 -15 2 -18 -4 -5 -7 -15 -3 -31 12 -13 12 -25 19
-25 16z"/>
<path d="M11973 604 c-7 -6 -10 -14 -7 -17 3 -2 -4 -7 -16 -10 -11 -3 -18 -1
-15 3 3 4 -4 6 -15 3 -11 -3 -17 -10 -13 -17 3 -6 3 -8 -2 -4 -4 4 -15 2 -23
-5 -11 -8 -14 -8 -9 0 4 6 3 14 -3 18 -6 4 -7 11 -4 17 4 7 2 8 -5 4 -6 -4 -9
-12 -5 -18 4 -6 -3 -8 -17 -6 -15 2 -23 -2 -21 -9 1 -8 -8 -13 -24 -13 -14 0
-23 4 -19 10 4 6 11 8 16 5 5 -4 9 -2 9 4 0 5 -31 9 -72 9 -41 -1 -62 -4 -47
-7 21 -5 25 -10 18 -26 -7 -19 -8 -19 -8 -1 -1 15 -4 16 -16 6 -8 -7 -12 -17
-8 -24 4 -7 3 -8 -5 -1 -5 6 -12 19 -14 29 -1 11 -9 21 -16 22 -7 1 -8 0 -2
-3 13 -6 13 -33 0 -33 -5 0 -7 -6 -4 -13 2 -7 -3 -21 -11 -32 -16 -19 -16 -19
-5 3 13 27 -6 31 -36 6 -10 -8 -14 -13 -8 -10 6 3 11 -1 11 -7 0 -14 -73 -17
-93 -4 -7 4 -17 0 -24 -8 -14 -17 -67 -45 -86 -45 -7 0 -14 -5 -16 -12 -5 -13
-114 -22 -122 -10 -3 5 -18 7 -35 6 -17 -1 -32 4 -35 11 -3 9 -20 12 -50 10
-34 -2 -46 1 -46 12 0 8 -5 11 -10 8 -6 -4 -7 -12 -3 -18 4 -7 0 -6 -10 2 -9
7 -17 10 -17 6 0 -4 -6 -3 -13 4 -10 8 -17 7 -25 -1 -13 -13 -84 -19 -76 -7 2
4 0 10 -5 13 -5 4 -12 3 -15 -2 -6 -10 -66 -9 -83 1 -6 4 -14 3 -17 -2 -4 -5
-14 -8 -24 -6 -9 1 -22 -2 -29 -7 -7 -6 -17 -1 -28 14 l-16 23 3 -30 c3 -28 1
-29 -34 -30 -28 0 -34 3 -26 13 6 7 8 15 4 19 -3 3 -6 1 -6 -6 0 -7 -4 -9 -10
-6 -5 3 -10 -2 -11 -12 0 -13 -3 -12 -10 7 -12 30 -30 42 -45 30 -6 -6 -15 -6
-19 -2 -5 4 -5 2 -2 -4 10 -17 -19 -39 -29 -23 -5 8 -3 9 6 4 9 -6 11 -4 6 4
-6 9 -12 9 -25 -3 -11 -10 -21 -12 -27 -6 -6 6 -10 0 -11 -18 -1 -23 -1 -24 7
-7 l9 20 1 -20 c1 -19 2 -18 10 3 5 12 12 22 14 22 3 0 2 -10 -3 -22 -7 -19
-16 -23 -47 -23 -25 0 -39 5 -39 13 0 6 -4 12 -10 11 -5 0 -9 -7 -7 -15 3 -13
-1 -13 -17 -4 -12 6 -21 16 -21 23 -1 7 -7 1 -15 -13 -10 -17 -14 -20 -15 -9
0 20 -27 32 -36 17 -4 -6 -3 -8 4 -4 6 3 13 2 16 -3 4 -5 -2 -8 -11 -6 -10 2
-18 4 -18 5 0 1 -8 3 -17 5 -12 2 -15 -2 -10 -13 5 -15 3 -15 -11 -4 -17 14
-42 8 -32 -8 3 -5 0 -12 -6 -16 -7 -4 -9 -3 -6 3 4 6 0 17 -9 24 -12 10 -15
10 -12 -1 4 -16 -24 -20 -34 -5 -5 6 -8 3 -8 -7 0 -10 -5 -18 -11 -18 -5 0 -8
4 -5 9 7 11 -14 9 -34 -4 -8 -5 -26 -10 -40 -10 -14 0 -31 -4 -39 -9 -11 -7
-12 -6 -6 5 7 11 6 12 -7 2 -8 -7 -18 -10 -21 -6 -4 3 -7 2 -7 -4 0 -6 -7 -14
-16 -17 -14 -5 -15 -4 -5 8 10 12 9 14 -8 9 -12 -3 -18 -10 -14 -16 4 -6 1 -7
-8 -1 -23 14 -39 13 -39 -2 0 -9 -4 -13 -9 -10 -5 4 -12 0 -14 -6 -4 -9 -6 -8
-7 2 0 10 -6 6 -16 -10 -11 -18 -14 -20 -10 -5 6 19 5 19 -8 3 -7 -10 -22 -18
-32 -18 -26 0 -84 -37 -84 -52 0 -10 2 -10 9 0 13 22 30 -38 37 -139 l7 -89
1624 0 1624 0 -8 158 c-4 86 -7 182 -6 212 1 30 2 72 2 93 1 23 5 36 11 32 6
-3 10 1 10 10 0 9 -4 14 -9 10 -5 -3 -16 2 -24 10 -9 8 -22 15 -29 15 -8 0
-20 6 -27 13 -11 10 -13 10 -7 -1 9 -16 -16 -16 -33 1 -11 10 -13 10 -7 0 9
-16 1 -16 -25 -3 -10 6 -19 18 -20 28 0 9 -3 12 -5 5 -3 -7 -11 -10 -17 -8 -7
3 -38 8 -69 13 -43 7 -55 6 -48 -2 6 -9 -6 -12 -46 -11 -35 0 -54 4 -54 12 0
6 -9 10 -20 8 -11 -2 -20 0 -20 6 0 5 -5 9 -11 9 -5 0 -7 -5 -3 -11 4 -8 0 -8
-15 0 -11 7 -21 8 -21 4 0 -4 -58 -8 -130 -8 -101 0 -130 -3 -130 -13 0 -8 5
-10 13 -6 8 5 8 2 -2 -9 -16 -20 -22 -22 -18 -4 1 8 -11 12 -40 11 -30 0 -43
3 -43 13 0 7 -3 12 -7 12 -5 -1 -10 0 -13 1 -3 1 -17 3 -32 4 -18 2 -25 -1
-21 -8 4 -6 -1 -5 -10 3 -14 11 -17 11 -17 0 0 -11 -2 -11 -10 1 -11 18 -52
21 -67 4z"/>
<path d="M4724 398 c-4 -7 -2 -8 4 -4 7 4 12 5 12 2 0 -3 -10 -10 -21 -17 -17
-9 -23 -8 -30 2 -7 11 -9 11 -9 1 0 -7 -4 -11 -9 -7 -5 3 -15 -1 -23 -8 -7 -8
-25 -12 -40 -10 -15 2 -29 -1 -33 -7 -3 -5 -13 -10 -21 -10 -8 0 -13 4 -10 8
2 4 -19 7 -47 6 -35 -2 -55 -8 -64 -20 -12 -16 -18 -12 -14 10 1 5 -5 4 -13
-4 -9 -7 -16 -9 -16 -4 0 4 -14 -5 -32 -22 -18 -16 -27 -21 -20 -12 11 14 10
16 -7 11 -12 -3 -19 -9 -16 -13 6 -9 -12 -23 -33 -26 -6 -1 -10 2 -6 7 3 5 10
6 16 3 7 -4 8 -2 4 4 -5 9 -13 9 -26 2 -11 -6 -25 -9 -32 -8 -6 2 -13 -3 -14
-9 -3 -27 -5 -28 -14 -13 -7 11 -10 11 -10 2 0 -7 -4 -11 -9 -7 -5 3 -12 1
-16 -5 -4 -6 -12 -7 -18 -3 -19 12 -36 12 -43 2 -3 -6 -12 -5 -22 3 -12 10
-14 10 -8 1 4 -7 2 -13 -3 -13 -6 0 -11 6 -11 13 0 9 -3 8 -9 -2 -6 -9 -10
-10 -12 -2 -2 6 -19 12 -37 14 -17 1 -32 6 -32 11 0 4 -7 5 -16 2 -11 -4 -18
1 -21 14 -6 24 -26 26 -43 5 -10 -12 -16 -13 -27 -3 -23 18 -56 21 -50 4 6
-14 -16 -16 -29 -3 -4 4 -13 2 -21 -5 -17 -13 -66 -21 -58 -8 3 4 -2 7 -11 6
-8 -1 -20 -9 -25 -17 -7 -12 -9 -12 -9 0 0 11 -3 12 -11 4 -8 -8 -20 -8 -35
-3 -14 6 -26 6 -29 0 -3 -5 -15 -6 -28 -1 -12 5 -29 7 -37 5 -8 -1 -26 -5 -38
-8 -19 -4 -23 -2 -18 12 5 14 3 13 -9 -2 -11 -14 -15 -16 -15 -5 0 12 -2 12
-9 0 -7 -11 -9 -11 -14 0 -4 11 -6 11 -6 1 -1 -7 -5 -10 -11 -7 -5 3 -10 3
-10 -2 0 -4 -21 -8 -48 -8 -26 0 -52 -5 -59 -11 -7 -7 -31 -10 -54 -8 -44 4
-114 -10 -124 -26 -3 -5 4 -7 15 -5 11 2 18 0 15 -5 -6 -9 -24 -8 -42 3 -6 4
-14 3 -18 -3 -3 -5 -15 -10 -25 -10 -10 0 -22 -5 -26 -12 -4 -7 -3 -8 4 -4 7
4 12 3 12 -1 0 -5 -10 -13 -22 -18 -20 -9 -23 -18 -26 -82 l-2 -73 643 0 644
0 67 24 c47 17 78 23 103 19 31 -5 35 -4 30 10 -4 11 -1 17 9 17 60 0 -95 70
-210 95 -23 5 -27 8 -15 16 39 24 171 0 232 -43 30 -22 48 -18 28 6 -14 17 -7
36 14 36 7 0 15 5 17 10 2 6 20 17 41 24 l37 12 -22 21 c-13 11 -36 25 -52 30
-17 5 -32 15 -34 21 -7 22 42 12 95 -18 64 -37 105 -87 96 -119 -5 -21 -4 -22
16 -11 14 7 20 17 17 26 -3 8 3 27 13 42 11 15 22 37 26 49 5 18 2 21 -19 19
-30 -4 -66 19 -66 40 0 11 4 12 19 4 11 -5 28 -7 38 -4 15 5 16 4 3 -5 -13
-10 -13 -12 0 -20 8 -5 17 -8 22 -5 4 3 17 -5 28 -16 17 -17 19 -24 10 -36
-17 -20 27 -36 55 -21 11 6 24 10 29 9 5 -2 3 4 -4 13 -11 13 -10 15 3 9 9 -3
19 -14 22 -25 11 -33 32 -21 39 21 3 22 5 42 4 45 -4 5 34 34 46 35 5 0 6 -14
2 -31 -5 -25 -3 -30 12 -26 54 15 70 15 88 2 10 -8 38 -15 61 -15 67 0 58 -16
-17 -30 -39 -7 -70 -16 -70 -20 0 -3 18 -14 40 -24 33 -15 39 -20 29 -32 -16
-20 -60 -19 -53 1 4 9 0 15 -10 15 -9 0 -16 -8 -16 -20 0 -11 -7 -20 -15 -20
-8 0 -15 8 -15 19 0 21 -23 45 -33 34 -4 -3 0 -15 10 -25 13 -15 14 -18 2 -18
-8 0 -19 4 -25 10 -6 6 -9 -12 -9 -50 0 -32 -3 -61 -6 -64 -11 -11 -38 5 -32
20 3 8 0 14 -6 14 -6 0 -11 13 -11 29 0 29 -24 49 -36 30 -4 -7 -10 -7 -18 0
-8 7 -21 5 -41 -5 -39 -20 -37 -17 -30 -58 5 -25 13 -36 25 -36 10 0 34 -7 53
-15 26 -11 73 -15 163 -15 120 0 126 1 112 18 -8 9 -18 25 -21 34 -10 27 37
35 82 13 20 -10 50 -21 66 -25 17 -4 38 -11 47 -15 15 -6 16 -2 11 31 l-6 38
37 -23 c20 -13 39 -21 42 -19 2 3 8 36 13 74 12 83 16 105 32 148 17 48 8 62
-45 70 -26 4 -44 11 -41 16 3 5 1 11 -4 14 -5 4 -13 2 -16 -4 -4 -7 -12 -7
-18 -2 -7 4 -32 8 -57 7 -32 -1 -47 3 -52 14 -6 14 -7 14 -7 -1 -1 -14 -6 -15
-31 -8 -21 6 -30 5 -30 -3 0 -7 -4 -6 -10 3 -9 13 -10 13 -10 0 0 -9 -3 -11
-8 -5 -4 6 -15 16 -24 23 -14 12 -16 10 -11 -10 4 -18 3 -20 -6 -8 -10 13 -11
13 -11 0 0 -13 -1 -13 -10 0 -6 9 -10 11 -10 3 0 -9 -7 -10 -22 -4 -13 5 -22
14 -20 21 1 6 -2 9 -8 5 -5 -3 -10 -14 -11 -23 0 -11 -2 -12 -6 -4 -2 6 -10 9
-16 5 -7 -4 -8 0 -3 12 5 14 4 16 -7 7 -8 -7 -17 -9 -20 -5 -4 3 -7 2 -7 -4 0
-5 -6 -10 -12 -10 -7 0 -20 -2 -28 -4 -8 -2 -14 1 -13 7 1 6 -4 11 -12 11 -8
0 -13 -5 -12 -11 2 -11 -9 -11 -66 -2 -15 2 -25 0 -21 -5 3 -5 10 -7 15 -4 5
4 9 1 9 -4 0 -14 -17 -14 -25 -2 -11 19 -65 40 -71 29z"/>
<path d="M14970 67 c-3 -2 -67 -7 -144 -11 -76 -4 -141 -8 -145 -10 -3 -2 -55
-7 -116 -10 -60 -4 -113 -10 -117 -12 -32 -20 22 -24 308 -24 l315 0 -3 33
c-3 30 -5 32 -48 35 -25 2 -48 1 -50 -1z"/>
</g>
</svg>
